<?xml version="1.0" standalone="no"?>
<!DOCTYPE svg PUBLIC "-//W3C//DTD SVG 20010904//EN"
 "http://www.w3.org/TR/2001/REC-SVG-20010904/DTD/svg10.dtd">
<svg version="1.0" xmlns="http://www.w3.org/2000/svg"
 width="1280.000000pt" height="1280.000000pt" viewBox="0 0 1280.000000 1280.000000"
 preserveAspectRatio="xMidYMid meet">
<g transform="translate(0.000000,1280.000000) scale(0.100000,-0.100000)"
fill="#000000" stroke="none">
<path d="M6410 10703 c-48 -25 -92 -95 -130 -209 -28 -84 -31 -103 -25 -160 4
-37 3 -64 -3 -64 -5 0 -30 27 -55 60 -55 70 -84 82 -136 54 -32 -17 -36 -24
-39 -62 -6 -86 45 -204 108 -251 17 -12 30 -28 30 -36 0 -30 -36 -13 -74 36
-22 27 -51 52 -64 56 -29 7 -90 -20 -99 -44 -18 -47 49 -236 99 -278 21 -18
28 -32 28 -59 0 -44 -30 -126 -65 -176 -16 -24 -25 -48 -24 -71 1 -19 -4 -67
-12 -106 -16 -89 -2 -188 37 -266 26 -52 26 -77 0 -77 -21 0 -54 -46 -66 -91
-6 -22 -15 -39 -19 -39 -5 0 -28 29 -51 65 -81 125 -147 171 -198 139 -39 -25
-47 -56 -32 -121 17 -79 43 -127 103 -190 55 -58 54 -73 -6 -73 -69 0 -102
-92 -51 -144 34 -33 81 -46 171 -46 84 0 117 10 158 50 l30 29 60 -18 c32 -10
61 -23 62 -28 2 -5 -21 -19 -51 -32 -31 -12 -75 -38 -100 -57 -89 -68 -180
-226 -230 -397 l-25 -87 25 -87 c29 -102 61 -178 80 -194 22 -18 17 -43 -15
-73 -36 -35 -44 -31 -132 61 -78 81 -112 136 -135 221 l-18 63 32 29 c25 23
32 37 32 67 0 48 -20 78 -70 103 -55 28 -78 25 -116 -16 -30 -32 -34 -42 -34
-92 0 -109 48 -245 126 -355 36 -50 43 -77 20 -77 -8 0 -26 -14 -39 -31 -21
-27 -27 -30 -45 -20 -50 27 -106 5 -139 -54 -10 -18 -17 -13 -87 52 -77 74
-125 98 -180 91 -40 -4 -50 -25 -41 -84 7 -46 13 -55 123 -159 108 -103 172
-182 172 -212 0 -7 -32 -22 -72 -34 l-71 -22 -23 28 c-22 28 -24 29 -116 26
-51 -1 -98 -7 -105 -13 -7 -6 -13 -28 -13 -49 0 -21 -9 -53 -20 -71 -37 -61
-25 -91 45 -104 22 -4 54 -13 72 -21 45 -18 77 -16 98 7 10 11 23 20 29 20 5
0 20 12 32 27 34 43 51 26 56 -60 6 -87 34 -146 95 -197 43 -35 72 -45 107
-36 19 5 28 18 41 62 13 45 28 67 79 117 66 66 106 125 131 196 14 42 14 47
-6 88 -11 23 -19 47 -17 52 6 18 119 111 128 106 5 -3 -2 -36 -14 -73 -38
-112 -47 -192 -43 -389 4 -152 7 -184 21 -198 21 -21 12 -35 -23 -35 -51 0
-65 -20 -58 -83 5 -51 3 -57 -19 -72 -19 -12 -24 -24 -24 -56 0 -54 34 -89 88
-89 50 0 62 14 62 71 0 33 5 49 16 53 39 15 53 5 89 -61 21 -38 50 -84 64
-103 15 -19 31 -40 35 -47 4 -8 -25 -36 -81 -77 -165 -120 -289 -271 -363
-440 -35 -78 -51 -91 -70 -55 -30 54 -150 62 -190 12 -31 -40 -28 -126 5 -159
23 -23 32 -25 83 -21 31 3 66 6 77 8 11 2 19 -1 18 -7 -1 -6 -9 -62 -18 -125
-9 -63 -21 -118 -27 -124 -6 -7 -20 3 -40 28 -22 27 -38 37 -58 37 -15 0 -48
9 -72 20 -44 19 -45 20 -67 103 -23 88 -62 181 -88 209 -27 30 -62 22 -103
-22 -20 -22 -39 -40 -42 -40 -3 0 -15 42 -27 94 -12 51 -27 101 -34 110 -18
25 -91 32 -120 13 -27 -17 -47 -95 -47 -180 l0 -49 -65 60 c-37 35 -81 66
-102 73 -21 6 -88 14 -150 16 -110 5 -111 5 -128 -20 -24 -37 -10 -73 50 -133
84 -85 185 -124 316 -124 52 0 63 4 84 26 l25 26 10 -27 c14 -37 8 -50 -33
-70 -19 -9 -49 -31 -68 -51 -27 -27 -35 -45 -39 -86 l-5 -52 -85 -18 c-107
-23 -175 -56 -245 -120 -49 -44 -55 -55 -55 -89 0 -28 5 -41 20 -49 14 -8 20
-21 20 -46 0 -37 36 -84 65 -84 24 0 18 -29 -15 -66 -59 -68 -98 -170 -109
-288 l-6 -70 -75 -16 c-119 -26 -159 -58 -168 -137 -3 -26 -13 -59 -23 -72
-25 -31 -24 -44 8 -166 l26 -103 -94 -102 c-110 -119 -216 -257 -248 -323 -13
-26 -31 -52 -41 -57 -10 -6 -53 -10 -95 -10 -67 0 -79 -3 -100 -25 -29 -28
-35 -95 -11 -115 8 -6 49 -17 91 -25 42 -7 79 -15 82 -18 12 -13 -11 -45 -56
-79 -102 -77 -161 -177 -169 -290 -4 -61 -3 -68 21 -92 39 -39 76 -34 134 16
26 22 54 49 61 60 15 21 51 24 74 6 10 -8 18 -36 21 -72 11 -109 108 -216 197
-216 45 0 80 35 80 80 0 36 -94 139 -171 186 l-59 37 0 49 c0 51 19 73 43 49
6 -6 35 -11 64 -11 45 0 55 4 69 25 15 22 15 32 4 68 -17 58 -44 93 -96 123
-24 14 -44 30 -44 35 0 19 74 156 115 214 69 97 224 234 254 223 15 -5 171
-191 171 -204 0 -6 -14 -14 -30 -18 -19 -3 -34 -14 -39 -28 -5 -13 -25 -39
-44 -60 -43 -43 -54 -78 -37 -118 9 -22 9 -37 1 -63 -18 -53 -1 -87 43 -87 19
0 38 4 41 10 6 10 64 13 177 11 63 -1 78 11 78 66 0 59 39 68 103 24 129 -88
326 -197 402 -221 24 -8 67 -38 107 -75 83 -79 189 -133 273 -141 55 -5 66 -2
140 34 l81 39 151 -16 c92 -10 157 -21 165 -29 18 -18 15 -226 -6 -456 -19
-196 -15 -224 30 -245 17 -7 139 -11 385 -11 480 0 461 -8 436 188 -37 283
-34 369 19 533 48 149 129 251 242 305 46 22 75 29 148 32 107 5 169 -11 227
-59 97 -80 156 -280 113 -383 -18 -43 -75 -89 -143 -115 -86 -33 -164 -24
-224 26 -41 35 -59 79 -59 148 0 49 4 60 28 85 30 29 74 45 154 55 58 7 76 31
58 75 -24 57 -41 65 -121 50 -145 -25 -245 -104 -268 -209 -9 -41 -7 -63 9
-126 61 -237 217 -342 432 -290 110 26 176 61 245 130 81 81 103 147 103 309
0 185 -34 272 -149 378 -96 89 -275 168 -380 168 -29 0 -51 5 -51 11 0 14 65
73 134 121 135 94 326 163 530 195 141 21 459 24 566 4 244 -44 454 -152 643
-331 95 -90 117 -127 86 -146 -19 -11 -59 -107 -59 -142 0 -46 25 -90 56 -98
19 -5 36 1 69 25 52 37 61 38 71 9 10 -35 35 -58 60 -58 13 0 54 -20 91 -45
97 -65 133 -70 182 -24 19 18 22 28 16 58 -17 92 -93 210 -158 243 -54 27 -95
58 -102 76 -4 12 2 14 33 10 39 -6 168 12 190 26 20 12 14 77 -10 113 -13 18
-45 45 -73 60 -46 26 -59 28 -160 29 l-109 1 -18 29 c-10 16 -18 34 -18 41 0
6 39 35 88 64 48 29 90 57 94 63 16 23 7 67 -17 91 -20 20 -34 25 -78 25 -71
0 -154 -25 -199 -61 -44 -35 -48 -35 -82 -8 -33 26 -33 39 -1 39 34 0 80 24
99 52 10 14 16 44 16 78 0 47 -4 60 -24 79 -31 30 -91 37 -138 18 -30 -13 -39
-23 -48 -56 -11 -43 -6 -83 16 -116 17 -23 18 -35 4 -35 -14 0 -188 98 -195
110 -3 6 12 17 35 26 49 20 105 82 117 132 6 22 6 65 2 102 -7 55 -5 67 8 78
9 6 23 12 30 12 19 0 34 44 27 79 -4 16 -19 41 -35 55 -20 18 -29 36 -29 57 0
111 -74 350 -162 522 -59 115 -111 167 -286 284 -62 42 -109 79 -105 83 4 4
37 16 73 26 46 14 75 30 102 56 74 74 98 160 51 184 -13 6 -31 18 -41 27 -28
26 -133 23 -157 -3 -10 -11 -26 -22 -36 -25 -22 -7 -59 -74 -59 -105 0 -12 5
-31 11 -42 12 -22 24 -108 16 -108 -16 0 -202 81 -205 89 -2 5 16 15 40 21
115 31 139 82 69 151 -34 34 -45 39 -85 39 -62 0 -60 17 7 67 41 31 66 42 118
50 36 6 84 19 105 29 48 23 116 92 134 135 12 28 11 36 -6 68 -17 33 -23 36
-66 39 -85 5 -184 -57 -245 -154 -26 -42 -33 -46 -128 -76 -55 -18 -106 -34
-112 -36 -8 -2 -13 6 -13 21 0 13 -10 36 -21 51 -26 33 -20 40 30 41 54 1 71
19 71 71 0 49 -17 64 -72 64 -43 0 -58 -15 -58 -56 0 -41 -11 -48 -76 -45 -43
2 -57 -2 -75 -20 -20 -20 -21 -28 -17 -146 l5 -124 -53 -49 c-53 -48 -169
-114 -184 -105 -5 3 -1 23 8 45 11 31 13 50 6 78 l-9 37 -68 3 c-84 4 -97 -5
-97 -65 0 -57 14 -81 56 -99 19 -8 34 -18 34 -24 0 -18 -153 -50 -163 -33 -3
5 1 44 10 88 14 76 14 86 -7 188 -26 131 -19 151 37 107 34 -27 144 -60 198
-60 46 0 75 19 75 48 0 76 -52 136 -157 184 -66 30 -70 36 -52 87 13 37 21 38
114 11 89 -25 134 -25 215 3 53 18 67 27 75 50 13 38 -9 75 -60 104 -72 41
-102 45 -195 23 -46 -12 -87 -17 -92 -12 -4 4 -4 30 1 58 5 27 12 88 16 137 4
48 12 87 17 87 5 0 28 -15 50 -34 103 -89 286 -155 453 -165 l110 -6 3 -52 c3
-50 2 -53 -21 -53 -33 0 -57 -30 -57 -72 0 -49 29 -74 72 -62 30 9 38 19 68
84 4 8 19 16 34 18 18 2 30 12 37 30 14 37 5 101 -18 117 -12 9 -18 27 -19 60
-1 26 -7 52 -13 58 -6 6 -62 14 -124 18 -129 7 -245 44 -344 108 -123 80 -174
165 -181 303 -6 113 16 210 71 312 50 94 67 108 96 82 31 -28 25 -47 -28 -88
-85 -64 -111 -158 -76 -276 32 -107 128 -185 267 -217 129 -29 188 -13 188 53
0 46 -20 62 -95 78 -134 28 -195 89 -195 194 0 63 16 88 70 115 19 10 38 23
42 29 15 21 8 76 -11 95 -10 10 -22 33 -26 51 -4 19 -16 35 -30 42 -19 9 -22
16 -18 47 3 25 -2 46 -16 69 -23 36 -46 40 -92 16 -27 -14 -33 -14 -54 0 -13
8 -26 29 -30 46 -4 17 -21 47 -38 67 -37 42 -29 64 29 75 21 5 45 16 52 25 17
23 15 64 -4 92 -15 21 -22 23 -63 17 -94 -14 -86 -22 -89 84 -2 82 -5 97 -23
113 -31 25 -76 22 -103 -8 -20 -21 -32 -25 -80 -25 -37 0 -70 -7 -97 -20 -45
-24 -44 -25 -58 68 -7 42 -7 72 0 89 8 22 6 32 -11 54 -33 46 -27 60 24 53 38
-6 45 -3 60 17 30 44 19 92 -27 115 -23 12 -27 18 -16 25 8 5 24 9 36 9 27 0
47 33 39 66 -14 55 -85 83 -121 48 -12 -12 -16 -30 -13 -62 l3 -46 -41 -3
c-41 -3 -42 -2 -74 60 -18 34 -48 86 -67 115 -18 29 -33 56 -33 60 0 4 21 20
48 37 26 16 93 76 150 133 101 102 103 105 100 146 -3 37 -6 42 -38 52 -30 10
-36 17 -41 50 -10 57 -40 76 -114 73 -37 -2 -59 0 -58 7 1 6 11 46 22 89 49
188 1 393 -129 553 -46 56 -51 66 -44 95 4 18 7 39 6 47 -5 31 -35 125 -43
134 -16 17 -10 42 16 66 30 28 31 54 5 98 -24 39 -62 43 -127 11 -44 -21 -93
-86 -93 -123 0 -13 -5 -16 -22 -11 -38 12 -42 22 -24 65 9 22 16 52 16 66 0
18 18 46 59 90 68 72 100 144 108 245 5 53 2 74 -15 112 -12 26 -25 47 -31 47
-5 0 -15 2 -23 5 -7 3 -29 -3 -48 -12z m76 -991 c91 -66 155 -163 174 -261 13
-70 13 -206 -1 -254 -20 -72 -115 -150 -211 -173 -24 -5 -29 -2 -44 29 -20 42
-14 62 21 71 84 21 155 108 180 220 35 155 -29 268 -180 317 -58 19 -67 37
-28 61 37 23 44 23 89 -10z m-95 -218 c40 -20 73 -93 65 -139 -8 -43 -59 -88
-90 -79 -37 11 -40 20 -29 96 5 40 6 85 2 100 -11 42 3 48 52 22z m365 -489
c9 -35 41 -55 86 -55 21 0 38 -4 38 -9 0 -24 -153 -132 -235 -167 l-37 -15
-39 42 c-21 23 -39 48 -39 54 0 7 26 25 57 41 38 19 71 47 97 81 46 58 63 64
72 28z m-595 -96 c28 -19 29 -24 29 -96 l0 -76 -36 6 c-20 3 -38 8 -41 11 -5
5 8 176 14 176 3 0 18 -9 34 -21z m329 -370 c7 -11 9 -23 6 -26 -9 -10 -66 19
-66 33 0 22 48 17 60 -7z m-28 -176 c75 -33 148 -111 193 -205 41 -86 44 -129
15 -244 -60 -235 -201 -374 -409 -404 -78 -11 -167 -4 -178 13 -7 12 45 57 67
57 9 0 59 13 110 30 65 20 116 30 162 30 93 0 98 3 98 59 0 48 -12 71 -39 71
-40 1 -43 16 -15 71 36 68 43 158 20 250 -23 90 -59 138 -128 173 -50 25 -58
32 -58 57 0 15 5 40 10 54 9 25 13 26 53 20 23 -4 68 -18 99 -32z m-312 -18
c0 -20 -10 -29 -53 -50 -60 -28 -118 -80 -144 -128 -27 -49 -24 -170 5 -224
25 -48 28 -85 8 -102 -49 -40 -85 164 -51 292 25 95 76 161 165 211 56 32 70
32 70 1z m194 -257 c18 -25 22 -128 6 -128 -5 0 -10 17 -10 38 0 20 -7 50 -15
66 -25 48 -11 67 19 24z m-75 -255 c-17 -20 -127 -73 -152 -73 -12 0 -17 6
-15 16 2 11 22 22 56 30 29 8 65 20 80 29 36 19 47 19 31 -2z m545 -85 c-8
-45 -63 -211 -73 -221 -12 -12 -81 3 -81 17 0 7 20 38 45 70 24 32 56 82 70
112 29 60 48 71 39 22z m202 -33 c20 -14 45 -25 55 -25 21 0 31 -12 21 -26
-11 -15 -154 -124 -164 -124 -12 0 -10 11 13 97 25 97 27 103 33 103 3 0 22
-11 42 -25z m266 -127 c8 -7 18 -28 22 -47 3 -19 23 -52 46 -77 22 -24 40 -52
40 -61 0 -10 -16 -41 -36 -68 -46 -65 -77 -126 -100 -197 -10 -32 -22 -58 -28
-58 -6 0 -31 35 -56 77 -25 42 -76 109 -113 149 -59 63 -67 76 -57 93 21 41
229 200 261 201 3 0 12 -6 21 -12z m-1714 -143 c17 -4 32 -12 32 -20 0 -15
-101 -95 -120 -95 -9 0 -10 12 -5 48 9 61 22 84 43 78 9 -2 32 -7 50 -11z
m1027 -65 c13 -21 -127 -85 -220 -100 -27 -5 -70 -14 -95 -20 -49 -12 -90 -6
-90 13 0 28 151 99 235 110 62 8 164 7 170 -3z m-569 -25 c4 -9 -9 -32 -34
-59 -23 -25 -56 -71 -74 -103 -27 -48 -34 -54 -36 -35 -2 12 11 65 28 117 l32
95 39 0 c26 0 42 -5 45 -15z m920 -117 c24 -22 43 -46 41 -52 -2 -6 -19 -11
-37 -12 -21 -1 -41 -10 -51 -23 -22 -27 -30 -26 -59 4 -20 22 -21 27 -11 54
14 33 47 71 62 71 5 0 30 -19 55 -42z m-786 -118 c79 0 85 -7 61 -63 -30 -71
-42 -149 -31 -209 18 -92 49 -132 176 -222 24 -17 25 -22 19 -65 -4 -25 -10
-50 -15 -55 -11 -11 -133 29 -195 64 -69 39 -119 94 -152 165 -24 51 -28 73
-28 150 0 80 4 99 33 167 33 76 48 94 67 77 5 -5 34 -9 65 -9z m428 3 c2 -7
-7 -17 -20 -22 -113 -43 -159 -58 -163 -52 -6 11 54 68 85 80 33 13 92 9 98
-6z m179 -90 c26 -40 24 -228 -2 -201 -4 4 -30 92 -52 176 -5 22 11 52 28 52
5 0 16 -12 26 -27z m303 -112 c25 -6 53 -20 62 -31 29 -36 51 -140 29 -140 -5
0 -22 7 -37 15 -43 22 -77 19 -104 -10 -62 -66 9 -243 125 -315 30 -19 35 -27
35 -59 0 -90 -92 -342 -140 -386 -16 -15 -22 -11 -70 49 -100 126 -227 225
-340 265 -30 11 -56 24 -58 29 -1 5 30 29 70 52 193 114 298 290 298 497 0 44
3 82 6 86 3 3 23 -5 43 -18 20 -13 56 -29 81 -34z m-717 -55 c6 -16 -2 -28
-14 -20 -12 7 -11 34 0 34 5 0 11 -6 14 -14z m377 -166 c0 -16 -29 -70 -58
-109 -26 -36 -121 -86 -135 -72 -5 5 -7 19 -5 32 2 16 19 31 61 52 32 17 73
47 90 68 32 39 47 48 47 29z m-475 -340 c3 -5 -1 -10 -9 -10 -9 0 -16 5 -16
10 0 6 4 10 9 10 6 0 13 -4 16 -10z m397 -241 c34 -17 91 -59 126 -93 72 -68
162 -189 162 -217 0 -17 -147 -210 -172 -225 -15 -10 -25 11 -32 70 -10 88
-68 189 -163 283 l-83 84 0 63 c0 34 3 66 8 70 13 14 91 -3 154 -35z m-523
-31 c17 -23 31 -47 31 -54 0 -6 -29 -31 -65 -54 -126 -82 -203 -195 -226 -335
-12 -67 -11 -76 23 -210 42 -168 86 -278 134 -334 20 -23 34 -47 31 -54 -7
-18 -224 -139 -242 -135 -7 2 -70 55 -140 118 l-127 115 5 130 c8 196 43 339
123 495 69 135 159 231 294 315 94 58 119 58 159 3z m155 -240 c26 -37 20 -56
-21 -67 -53 -14 -103 -59 -138 -122 -28 -50 -30 -61 -30 -159 0 -97 2 -109 28
-152 28 -48 80 -87 148 -109 51 -17 56 -26 29 -54 -32 -34 -49 -32 -108 13
-63 47 -107 101 -141 172 -24 50 -26 66 -26 180 0 116 2 129 29 187 15 34 38
70 50 82 58 54 152 70 180 29z m65 -241 c8 -10 8 -30 0 -72 -6 -31 -7 -75 -4
-96 6 -32 4 -39 -10 -39 -25 0 -72 27 -89 52 -23 33 -21 109 5 142 23 29 78
36 98 13z m650 -70 c0 -98 -14 -125 -84 -165 -33 -19 -97 -56 -143 -83 -46
-27 -88 -49 -93 -49 -5 0 -9 9 -9 21 0 23 308 351 322 343 4 -3 8 -33 7 -67z
m-1990 -208 c88 -50 319 -225 362 -275 9 -11 22 -48 28 -84 26 -133 121 -390
251 -676 l33 -71 -63 -122 c-35 -66 -69 -126 -76 -132 -10 -8 -38 0 -111 34
-54 24 -115 49 -135 56 -48 16 -49 35 -5 86 l33 38 18 -27 c23 -36 103 -86
136 -86 37 0 116 53 136 91 48 95 -34 209 -152 209 l-46 0 6 38 c19 126 18
197 -4 282 -58 213 -150 366 -274 454 -89 64 -126 79 -286 112 -24 5 -23 8 30
55 30 26 57 49 59 49 2 0 29 -14 60 -31z m2775 5 c90 -15 198 -39 246 -56 315
-111 518 -293 575 -514 16 -65 16 -327 -1 -343 -5 -5 -42 -12 -81 -16 -85 -8
-85 -9 -53 93 72 228 -74 426 -369 502 -106 28 -126 28 -247 -4 -114 -30 -258
-98 -325 -153 -40 -33 -62 -58 -130 -146 -16 -21 -16 -21 -33 10 -20 39 -66
73 -110 80 -26 4 -38 0 -56 -18 -50 -53 -52 -62 -33 -115 21 -56 48 -68 127
-58 59 8 67 -2 54 -60 -6 -22 -8 -82 -5 -131 7 -116 42 -225 108 -328 27 -43
49 -83 49 -88 0 -5 -12 -11 -27 -15 -89 -20 -151 -37 -195 -55 -27 -10 -54
-17 -59 -14 -16 10 -10 41 11 60 13 12 20 31 20 54 0 30 -9 44 -50 85 -28 27
-50 56 -50 65 0 35 -30 61 -69 61 -25 0 -44 7 -56 20 -20 22 -64 27 -83 8 -7
-7 -12 -27 -12 -45 0 -26 -6 -36 -29 -47 -18 -10 -30 -26 -34 -44 -3 -17 -16
-33 -30 -39 -50 -23 -41 -120 12 -133 13 -3 28 -13 33 -23 4 -9 12 -25 17 -34
4 -10 21 -20 37 -23 27 -5 30 -10 36 -60 l8 -55 -48 -40 c-26 -22 -90 -82
-143 -132 -132 -129 -164 -125 -148 17 20 178 83 373 211 653 95 210 335 633
364 644 8 3 44 -7 80 -22 75 -32 130 -31 207 3 42 19 47 24 47 54 0 61 -44 96
-149 119 -28 6 -53 15 -57 20 -3 5 5 23 17 40 17 24 27 30 48 26 14 -2 58 -10
96 -17 53 -9 80 -9 112 -1 49 13 103 61 103 91 0 36 -50 76 -113 90 -57 13
-68 25 -45 48 17 17 42 15 222 -14z m-630 -66 c-5 -7 -58 -69 -119 -138 -61
-70 -140 -165 -175 -213 -36 -47 -71 -85 -79 -84 -18 3 -57 107 -48 130 3 9
42 34 85 56 61 31 88 51 115 88 44 60 111 125 157 152 39 23 76 28 64 9z
m-2315 -189 c121 -32 271 -111 337 -176 157 -155 174 -386 43 -582 -49 -73
-176 -201 -200 -201 -10 0 -41 9 -69 20 -38 15 -56 17 -70 10 -22 -12 -60 -13
-60 -2 0 5 16 16 35 25 48 23 119 90 149 140 35 61 66 163 66 219 0 87 -83
221 -181 293 -84 62 -155 79 -305 72 -65 -3 -131 -8 -147 -12 -24 -7 -28 -4
-33 24 -4 18 -20 42 -38 57 -30 24 -30 25 -12 39 33 25 62 18 85 -18 33 -53
102 -74 135 -41 21 21 20 43 -4 79 -11 17 -20 35 -20 42 0 36 177 43 289 12z
m1406 -133 c22 -16 26 -11 -163 -210 l-85 -90 -27 33 c-41 49 -66 99 -55 110
12 11 297 171 305 171 4 0 15 -6 25 -14z m392 -176 l52 -129 -45 -98 c-73
-156 -140 -330 -180 -464 -20 -68 -38 -130 -40 -136 -2 -7 -8 -13 -13 -13 -30
0 -36 432 -8 570 25 121 53 220 80 282 26 58 72 118 91 118 6 0 35 -58 63
-130z m1509 69 c107 -35 184 -122 184 -207 0 -69 -56 -187 -124 -260 -71 -77
-212 -114 -286 -75 -34 18 -81 85 -68 98 4 4 25 -8 48 -26 38 -31 48 -34 109
-34 105 0 176 53 220 163 20 48 8 128 -27 177 -77 109 -279 157 -407 95 -57
-28 -100 -87 -127 -174 -20 -67 -20 -72 -5 -145 9 -42 32 -107 52 -145 l35
-70 -37 -39 c-36 -36 -38 -41 -37 -103 0 -35 -3 -64 -7 -64 -16 0 -82 88 -112
150 -32 64 -32 66 -32 215 0 144 1 152 29 212 57 123 185 206 386 248 75 16
120 13 206 -16z m-3401 -130 c25 -13 73 -47 106 -77 59 -54 59 -54 59 -110 0
-58 -15 -102 -37 -110 -10 -3 -13 17 -13 76 0 71 -3 83 -29 119 -30 41 -100
83 -139 83 -35 0 -72 19 -72 36 0 23 62 14 125 -17z m-244 -42 c6 -22 1 -39
-24 -79 -29 -47 -32 -59 -31 -127 2 -138 72 -259 170 -297 25 -9 43 -22 41
-28 -6 -17 -47 -19 -65 -3 -9 9 -30 19 -47 23 -16 4 -41 14 -54 23 -59 38
-161 249 -161 331 0 54 30 109 82 154 50 43 78 44 89 3z m3518 -22 c32 -16 41
-33 41 -79 0 -67 -54 -99 -86 -51 -22 33 -55 40 -94 20 -17 -9 -34 -14 -38
-11 -12 13 20 86 49 110 35 30 84 34 128 11z m-2320 -55 c51 -64 111 -163 111
-183 0 -8 -7 -17 -15 -21 -16 -6 -50 41 -113 154 -59 108 -50 135 17 50z m481
-9 c0 -10 -27 -134 -36 -163 -8 -29 -29 -21 -47 17 -24 50 -22 62 19 111 32
41 64 57 64 35z m-1480 -71 c12 -8 13 -13 3 -30 -18 -28 -16 -91 3 -119 38
-53 -55 -54 -100 0 -56 67 -20 149 69 158 6 0 17 -4 25 -9z m-512 -282 c19
-19 15 -27 -25 -43 -42 -18 -63 -14 -63 13 0 25 20 42 50 42 14 0 31 -5 38
-12z m1720 -28 c3 -21 2 -22 -12 -11 -19 16 -21 44 -3 39 6 -3 14 -15 15 -28z
m2326 -116 c4 -47 5 -88 2 -91 -2 -3 -44 0 -93 6 -48 6 -127 11 -175 11 -93 0
-102 6 -73 44 8 11 15 35 15 53 l0 33 88 1 c48 0 112 7 142 14 92 21 86 25 94
-71z m-2392 -66 c24 -29 64 -79 87 -110 24 -32 51 -60 62 -63 10 -4 19 -13 19
-21 0 -10 -13 -14 -49 -14 -68 0 -101 -28 -108 -93 -3 -26 -9 -47 -12 -47 -4
0 -49 42 -100 94 -105 108 -103 83 -19 224 27 45 55 82 62 82 8 0 34 -24 58
-52z m-791 -201 c148 -39 367 -149 356 -180 -2 -7 -32 -15 -70 -19 -180 -18
-301 -147 -359 -383 -16 -63 -25 -85 -37 -85 -22 0 -141 58 -226 110 -149 91
-275 202 -389 344 -99 122 -103 131 -72 151 38 25 154 63 242 80 57 10 131 13
269 11 165 -3 203 -7 286 -29z m1021 -243 c12 -69 9 -194 -4 -193 -11 0 -126
153 -136 180 -2 5 7 9 21 9 13 0 39 11 58 24 19 13 38 23 44 22 5 -2 13 -20
17 -42z m-487 -193 c47 -21 120 -96 159 -163 42 -72 97 -233 84 -246 -12 -12
-148 -4 -163 10 -5 5 -8 39 -6 77 5 117 -30 193 -101 222 -18 7 -44 21 -57 31
-28 21 -149 26 -169 6 -17 -17 -15 -93 3 -108 9 -7 44 -16 78 -19 56 -5 63 -9
84 -40 26 -39 31 -106 9 -136 -13 -17 -20 -18 -120 -7 -111 12 -191 39 -222
73 -26 29 -21 78 16 158 33 72 74 119 125 145 45 24 227 22 280 -3z"/>
<path d="M7186 7440 c-56 -5 -60 -7 -68 -35 -27 -102 78 -180 148 -110 21 21
25 33 22 76 -4 65 -21 77 -102 69z"/>
<path d="M6927 6448 c-39 -36 -41 -68 -8 -120 37 -58 58 -63 123 -30 68 35 75
49 58 104 -20 64 -26 68 -91 68 -46 0 -63 -5 -82 -22z"/>
<path d="M5676 5333 c-14 -14 -36 -75 -36 -98 0 -39 44 -65 110 -65 46 0 60 4
78 23 28 30 29 85 1 121 -18 23 -27 26 -83 26 -34 0 -66 -3 -70 -7z"/>
<path d="M7841 5226 c-27 -28 -38 -94 -22 -125 10 -18 20 -21 82 -21 l70 0 20
47 c11 27 18 57 14 70 -13 52 -124 72 -164 29z"/>
<path d="M4833 3660 c-31 -18 -33 -23 -33 -74 0 -61 16 -86 55 -86 13 0 35 -4
49 -10 14 -5 33 -7 41 -3 21 7 65 95 65 128 0 33 -51 65 -105 65 -22 0 -54 -9
-72 -20z"/>
<path d="M5643 8458 c-51 -35 -55 -61 -18 -124 18 -31 35 -46 58 -52 34 -9 93
0 109 16 15 15 24 73 18 117 -4 33 -11 43 -40 57 -48 25 -78 21 -127 -14z"/>
<path d="M7263 8261 c-48 -22 -53 -36 -37 -113 13 -65 28 -88 56 -88 27 0 118
48 125 66 3 9 0 40 -6 70 -19 83 -57 101 -138 65z"/>
<path d="M7722 7064 c-18 -12 -22 -25 -22 -65 0 -91 66 -125 143 -73 45 30 58
58 44 98 -17 49 -117 74 -165 40z"/>
<path d="M4864 6778 c-40 -19 -58 -94 -30 -131 7 -9 27 -22 45 -28 27 -10 37
-7 76 16 54 31 71 65 53 103 -22 46 -92 66 -144 40z"/>
<path d="M4776 6464 c-18 -17 -21 -80 -6 -104 7 -11 33 -16 99 -18 80 -4 91
-2 110 17 25 25 27 68 5 99 -14 20 -24 22 -104 22 -67 0 -92 -4 -104 -16z"/>
<path d="M5362 6344 c-16 -11 -22 -25 -22 -53 0 -45 24 -71 66 -71 48 0 69 22
69 70 0 30 -6 46 -20 56 -25 18 -65 18 -93 -2z"/>
<path d="M4714 6155 c-73 -30 -100 -123 -48 -164 31 -24 115 -29 132 -8 6 7
17 34 24 60 12 46 11 47 -17 78 -43 44 -56 49 -91 34z"/>
<path d="M5266 6094 c-27 -7 -54 -18 -59 -23 -18 -18 -12 -99 9 -122 21 -24
86 -59 108 -59 25 0 86 62 86 87 0 32 -45 119 -65 127 -19 7 -16 7 -79 -10z"/>
<path d="M7892 3629 c-21 -8 -26 -21 -22 -66 1 -13 -7 -27 -19 -35 -12 -7 -21
-18 -21 -25 0 -6 -11 -25 -25 -41 -29 -34 -32 -77 -9 -110 14 -20 14 -24 0
-44 -34 -48 -8 -118 43 -118 29 0 61 27 61 51 0 25 136 18 180 -9 43 -27 45
-27 71 -1 17 17 19 28 13 65 -5 36 -3 44 10 44 34 0 50 85 20 114 -8 9 -24 16
-35 16 -10 0 -24 9 -31 21 -14 23 -85 73 -117 84 -12 3 -25 15 -31 25 -13 24
-59 39 -88 29z"/>
<path d="M8498 3530 c-43 -28 -48 -36 -48 -68 0 -46 32 -117 58 -131 57 -31
154 10 170 72 18 66 -32 143 -98 153 -28 4 -45 -1 -82 -26z"/>
<path d="M8765 3305 c-21 -20 -25 -34 -25 -79 0 -69 6 -83 41 -101 67 -35 163
2 190 73 11 29 -12 84 -49 112 -38 31 -125 28 -157 -5z"/>
<path d="M9195 2898 c-68 -53 -85 -220 -27 -264 51 -39 129 4 151 82 17 60 14
169 -5 188 -23 23 -86 20 -119 -6z"/>
</g>
</svg>
