<?xml version="1.0" standalone="no"?>
<!DOCTYPE svg PUBLIC "-//W3C//DTD SVG 20010904//EN"
 "http://www.w3.org/TR/2001/REC-SVG-20010904/DTD/svg10.dtd">
<svg version="1.0" xmlns="http://www.w3.org/2000/svg"
 width="1280.000000pt" height="1280.000000pt" viewBox="0 0 1280.000000 1280.000000"
 preserveAspectRatio="xMidYMid meet">
<g transform="translate(0.000000,1280.000000) scale(0.100000,-0.100000)"
fill="#000000" stroke="none">
<path d="M6311 10855 c-11 -14 -31 -56 -45 -93 l-26 -67 -82 -29 c-122 -42
-158 -63 -158 -88 0 -13 27 -48 73 -92 l72 -71 -12 -80 c-6 -44 -12 -97 -12
-117 -1 -62 32 -52 166 48 l28 22 138 -46 c171 -57 171 -57 138 66 -37 135
-38 149 -6 182 15 16 49 38 76 50 40 17 49 25 49 46 0 30 -33 46 -124 63 -33
6 -70 18 -82 26 -13 8 -51 58 -86 110 -34 52 -67 95 -74 95 -7 0 -22 -11 -33
-25z"/>
<path d="M6409 10141 c-20 -16 -22 -23 -13 -38 14 -22 46 -28 73 -13 25 13 27
33 5 54 -20 21 -37 20 -65 -3z"/>
<path d="M6174 10006 c-8 -14 -14 -35 -12 -48 2 -19 9 -23 38 -23 31 0 35 3
38 27 4 33 -13 68 -33 68 -8 0 -22 -11 -31 -24z"/>
<path d="M6532 9918 c-7 -7 -12 -24 -12 -38 0 -35 17 -50 57 -50 24 0 37 7 49
25 15 23 15 27 0 50 -18 28 -72 35 -94 13z"/>
<path d="M6290 9808 c-30 -21 -35 -30 -38 -70 -3 -42 0 -48 31 -72 44 -34 95
-35 125 -3 27 28 32 127 7 147 -29 24 -88 23 -125 -2z"/>
<path d="M6676 9661 c-17 -19 -17 -20 3 -40 26 -26 33 -26 62 -2 20 16 22 23
13 38 -16 26 -56 28 -78 4z"/>
<path d="M6056 9641 c-26 -29 -18 -82 17 -101 24 -13 30 -13 55 0 33 19 43 78
17 104 -22 22 -68 20 -89 -3z"/>
<path d="M6433 9609 c-18 -5 -39 -19 -48 -31 -23 -34 -19 -109 8 -149 20 -31
28 -34 75 -37 50 -3 55 -1 93 36 30 31 39 47 39 73 -1 41 -13 58 -64 93 -41
28 -53 29 -103 15z"/>
<path d="M6153 9446 c-24 -20 -27 -30 -25 -71 3 -75 52 -135 109 -135 18 0 33
-2 33 -4 0 -2 -9 -23 -20 -47 -11 -24 -20 -55 -20 -68 0 -25 3 -24 -73 -5 -35
9 -94 -20 -117 -58 -42 -69 -15 -163 57 -195 21 -10 40 -18 42 -20 1 -1 0 -25
-4 -53 l-7 -52 -47 3 c-85 4 -102 0 -136 -34 -45 -45 -53 -91 -27 -150 17 -37
29 -49 71 -68 50 -23 51 -25 45 -59 -10 -60 -10 -60 -66 -60 -76 0 -87 10 -65
55 26 55 22 78 -23 119 -51 46 -83 46 -139 4 -42 -32 -43 -34 -38 -81 6 -63
36 -97 88 -97 21 0 40 -4 43 -9 3 -5 -3 -30 -15 -55 -17 -39 -19 -55 -11 -92
11 -52 -1 -58 -38 -19 -27 29 -67 32 -110 10 -64 -33 -86 -95 -55 -154 20 -39
72 -81 100 -81 23 0 24 -1 9 -35 -7 -19 -14 -51 -14 -71 0 -33 -2 -36 -22 -28
-13 4 -45 8 -71 8 -44 1 -52 -3 -83 -36 -28 -31 -34 -45 -34 -83 0 -82 36
-125 103 -125 l34 0 -5 -72 c-2 -40 -8 -77 -12 -81 -4 -5 -26 2 -49 14 -37 19
-47 20 -81 10 -59 -18 -90 -61 -90 -127 0 -71 34 -112 98 -121 38 -5 43 -8 38
-27 -3 -12 -6 -45 -6 -73 0 -58 -15 -68 -54 -38 -31 24 -90 19 -124 -10 -40
-34 -56 -75 -48 -128 8 -54 41 -94 91 -111 39 -14 39 -15 37 -57 -5 -78 -5
-77 -77 -72 -54 5 -69 2 -99 -17 -20 -12 -41 -30 -46 -40 -23 -44 0 -138 38
-159 12 -6 40 -11 65 -11 24 0 46 -3 50 -6 3 -4 -3 -25 -14 -47 -12 -22 -22
-54 -22 -71 -2 -25 -6 -30 -22 -28 -100 17 -133 14 -165 -18 -16 -16 -20 -34
-20 -82 0 -83 25 -118 91 -125 82 -9 139 41 139 122 0 36 15 46 38 23 6 -6 31
-14 54 -18 31 -4 42 -10 39 -20 -2 -8 -7 -37 -10 -65 -5 -43 -9 -50 -26 -47
-11 1 -41 5 -67 8 -81 11 -138 -40 -138 -125 0 -21 -2 -40 -5 -43 -3 -3 -22 1
-43 8 -62 22 -97 17 -137 -17 -32 -28 -35 -36 -35 -84 0 -43 5 -60 26 -84 23
-28 32 -31 79 -31 74 0 115 33 115 93 0 61 10 72 46 54 16 -8 48 -18 71 -22
l41 -6 -14 -36 c-9 -20 -14 -54 -12 -77 3 -47 0 -48 -62 -19 -83 38 -149 3
-164 -87 -5 -33 -2 -50 16 -82 27 -48 62 -68 119 -68 40 0 41 -1 26 -18 -25
-28 -23 -125 4 -169 23 -37 73 -68 96 -59 25 10 32 -3 17 -32 -32 -62 -7 -135
64 -182 25 -16 53 -30 62 -30 14 0 16 -9 13 -57 -6 -86 -6 -85 -55 -63 -24 11
-58 20 -77 20 -28 0 -32 3 -26 18 43 101 43 113 0 161 -27 29 -45 40 -76 44
-50 7 -75 -2 -111 -38 -23 -23 -28 -36 -28 -79 0 -33 7 -59 18 -73 23 -28 82
-63 107 -63 19 0 21 -5 17 -65 -7 -110 32 -165 116 -165 40 0 50 5 83 39 20
22 42 56 49 76 9 28 16 35 29 30 9 -4 36 -10 59 -13 41 -5 43 -6 37 -31 -4
-14 -9 -42 -12 -62 l-5 -37 -79 5 -78 6 -37 -37 c-35 -35 -36 -39 -31 -86 10
-85 57 -130 135 -130 58 0 112 64 112 133 0 45 8 50 40 27 16 -11 44 -20 65
-20 34 0 37 -2 30 -22 -4 -13 -10 -47 -12 -75 -3 -29 -6 -53 -8 -53 -1 0 -19
7 -38 15 -47 20 -107 19 -136 -1 -34 -25 -47 -64 -41 -130 4 -53 8 -61 39 -81
23 -16 49 -23 80 -23 41 0 52 5 84 38 24 25 40 52 44 75 6 42 9 43 49 22 16
-8 39 -15 52 -15 21 0 22 -4 22 -75 0 -78 -7 -89 -39 -61 -9 8 -42 17 -73 21
-55 7 -59 6 -85 -22 -46 -50 -55 -85 -31 -130 26 -49 67 -92 94 -99 49 -13
154 80 154 136 0 27 2 30 19 20 11 -5 45 -10 75 -10 52 0 59 3 96 40 33 33 40
47 40 80 0 45 6 48 52 20 18 -11 41 -20 51 -20 14 0 17 -10 17 -61 0 -59 -1
-61 -22 -55 -88 27 -142 14 -192 -44 -31 -38 -33 -68 -6 -120 27 -52 55 -70
113 -70 42 0 53 5 90 39 38 36 42 43 40 85 -1 25 1 46 5 46 3 0 16 -10 29 -22
16 -15 35 -21 68 -21 40 0 51 5 85 38 26 25 40 48 40 65 0 45 11 51 61 33 58
-21 92 -9 149 53 33 36 40 51 40 84 0 44 5 48 32 23 10 -9 35 -19 56 -22 l37
-6 -3 -70 c-2 -39 -6 -72 -8 -74 -2 -2 -15 4 -28 13 -16 10 -46 16 -80 16 -48
0 -60 -4 -91 -31 -32 -28 -35 -36 -35 -85 0 -59 -8 -65 -47 -34 -33 25 -73 25
-123 0 -50 -25 -60 -45 -60 -113 0 -47 4 -60 29 -86 26 -27 35 -31 83 -31 46
0 58 4 80 28 40 42 59 86 52 121 -8 38 -2 38 43 4 83 -63 193 6 193 121 0 42
3 43 37 16 28 -22 101 -27 133 -10 29 15 70 92 70 129 0 28 3 32 18 25 24 -11
118 -17 147 -10 28 7 65 70 65 111 0 37 -25 92 -48 104 -12 6 -39 11 -61 11
-70 0 -73 5 -40 67 16 30 29 64 29 74 0 16 3 18 19 9 22 -11 130 -13 147 -2
21 14 54 77 54 105 0 69 -55 133 -119 140 -17 2 -34 6 -37 10 -4 3 3 26 15 50
11 24 21 51 21 61 0 14 5 16 23 9 12 -4 43 -8 69 -8 41 0 52 5 88 40 40 38 41
43 37 88 -6 68 -67 127 -132 127 -30 0 -31 5 -5 66 12 26 18 55 14 67 -5 17
-3 19 12 12 11 -4 31 -12 45 -18 43 -17 93 -1 133 43 41 46 45 74 16 130 -31
61 -99 87 -153 59 -50 -26 -67 -51 -67 -98 0 -25 -4 -53 -10 -61 -7 -12 -12
-12 -29 4 -12 11 -42 21 -71 24 -54 5 -57 7 -35 36 8 11 15 38 15 61 0 52 6
58 36 38 32 -21 97 -20 129 1 59 39 82 124 50 186 -19 37 -43 50 -94 50 -49 0
-55 8 -36 54 8 19 15 46 15 58 0 44 14 52 51 29 80 -49 158 -2 174 105 6 34 2
44 -29 80 -30 36 -42 42 -87 47 -28 4 -54 8 -56 11 -2 2 7 21 22 41 47 70 27
150 -45 179 -22 9 -51 16 -65 16 -33 0 -39 14 -20 49 8 17 15 48 15 71 0 22 2
40 5 40 3 0 22 -9 42 -20 46 -24 55 -25 99 -4 40 19 74 77 74 125 0 23 -10 41
-39 70 -37 37 -55 44 -108 39 -13 -1 -23 0 -23 2 0 2 11 25 25 52 27 54 26 82
-7 129 -22 31 -86 67 -119 67 -16 0 -19 4 -13 18 4 9 10 42 12 73 3 54 2 58
-36 98 -30 31 -46 41 -71 41 -36 0 -50 22 -31 46 7 8 16 42 19 75 l6 61 27
-21 c40 -32 98 -28 138 9 30 28 32 34 27 76 -8 72 -33 98 -97 102 -63 4 -79
-8 -110 -79 -18 -44 -24 -49 -43 -43 -12 4 -37 10 -55 15 -45 10 -48 14 -34
52 7 19 12 43 12 55 0 21 5 22 73 22 65 0 76 3 97 25 17 18 25 40 28 77 3 49
1 56 -31 91 -32 34 -39 37 -87 37 -46 0 -56 -4 -86 -34 -24 -24 -34 -43 -34
-65 0 -35 -7 -37 -65 -17 -40 15 -40 15 -39 66 1 28 4 53 6 55 2 3 20 -1 40
-7 55 -17 101 -3 142 42 41 46 45 75 17 136 -23 51 -55 74 -99 74 -32 0 -34 1
-27 28 4 15 9 51 12 79 4 48 2 55 -24 82 -16 16 -50 35 -74 42 -59 17 -64 23
-49 58 30 74 -15 168 -95 196 -33 11 -39 17 -36 37 12 79 6 117 -24 148 -16
17 -50 37 -75 44 -26 8 -45 19 -45 27 1 28 18 139 21 139 2 0 21 -9 43 -21 43
-22 62 -18 109 24 18 16 22 31 22 74 0 85 -8 93 -90 93 -69 0 -71 -1 -90 -32
-11 -18 -20 -41 -20 -50 0 -27 -15 -29 -75 -11 l-56 17 3 66 c2 52 6 64 18 61
8 -3 38 -7 66 -9 43 -3 55 0 82 23 29 24 32 32 32 81 0 45 -4 59 -25 79 -21
21 -33 25 -89 25 -63 0 -66 -1 -81 -30 -8 -16 -18 -49 -21 -74 l-6 -44 -36 24
c-23 16 -49 24 -78 24 -48 0 -52 6 -28 52 19 37 13 62 -26 111 -30 35 -35 37
-90 37 -48 0 -64 -5 -87 -24z m180 -461 c44 -18 50 -28 42 -66 -5 -23 -11 -29
-23 -23 -10 4 -32 9 -49 12 -35 4 -40 19 -27 70 7 26 11 27 57 7z m179 -258
c18 -29 8 -47 -26 -47 -41 0 -57 17 -45 49 8 19 14 22 36 16 16 -3 31 -12 35
-18z m-264 -154 c3 -19 -1 -23 -22 -23 -21 0 -26 5 -26 26 0 21 4 25 23 22 14
-2 23 -11 25 -25z m407 -98 c0 -14 -8 -21 -27 -23 -22 -3 -28 1 -28 16 0 25
10 33 35 30 12 -2 20 -10 20 -23z m143 -243 c4 -36 -18 -53 -43 -32 -18 15
-20 56 -2 63 27 12 42 1 45 -31z m-660 -36 c5 -24 -10 -38 -31 -30 -17 6 -23
35 -10 48 12 12 38 1 41 -18z m-208 -158 l0 -38 -65 0 c-36 0 -65 3 -65 8 0 4
9 21 20 37 11 17 20 40 20 52 l0 22 45 -22 c40 -20 44 -25 45 -59z m1024 -35
c-9 -55 -22 -65 -61 -48 -21 9 -33 21 -33 34 0 41 11 51 57 51 l44 0 -7 -37z
m-274 -148 c0 -8 -4 -15 -9 -15 -13 0 -22 16 -14 24 11 11 23 6 23 -9z m-655
-15 c40 -15 31 -54 -12 -58 -27 -3 -33 0 -33 17 0 20 9 51 15 51 2 0 16 -5 30
-10z m-207 -131 c24 -9 27 -24 13 -62 -9 -23 -14 -24 -58 -20 -26 3 -50 7 -52
9 -2 2 1 16 7 31 5 15 13 36 16 46 6 19 14 18 74 -4z m1012 -78 c0 -23 -14
-41 -31 -41 -19 0 -27 29 -12 43 10 10 43 8 43 -2z m-660 -56 c0 -8 -7 -15
-15 -15 -16 0 -20 12 -8 23 11 12 23 8 23 -8z m-230 -105 c21 -11 36 -60 20
-70 -17 -11 -70 1 -70 16 0 15 21 64 27 64 2 0 13 -4 23 -10z m1038 -87 c-3
-35 -6 -38 -36 -41 -38 -4 -51 16 -34 54 9 18 19 24 42 24 30 0 31 -2 28 -37z
m-1281 -39 c41 -16 43 -18 43 -60 l0 -43 -52 6 c-29 3 -54 7 -55 7 -5 4 10
106 16 106 3 0 25 -7 48 -16z m1013 -109 c0 -8 -4 -15 -10 -15 -5 0 -10 7 -10
15 0 8 5 15 10 15 6 0 10 -7 10 -15z m-622 -37 c3 -24 0 -28 -22 -28 -30 0
-40 13 -31 41 10 31 49 21 53 -13z m1006 -18 c19 -7 26 -17 26 -37 0 -50 -13
-59 -57 -41 -31 12 -38 19 -35 39 5 52 16 58 66 39z m-1248 -88 c7 -4 13 -18
14 -32 4 -49 2 -52 -32 -45 -47 10 -52 19 -34 54 16 31 31 37 52 23z m1008
-78 c11 -29 6 -44 -13 -44 -26 0 -34 15 -21 40 13 24 26 26 34 4z m-1217 -54
c15 0 18 -67 3 -90 -7 -12 -14 -12 -43 -2 -18 7 -44 12 -56 12 -18 0 -22 4
-16 18 4 9 10 31 12 47 8 56 10 57 50 35 21 -11 43 -20 50 -20z m583 -1 c0 -5
-7 -9 -15 -9 -15 0 -20 12 -9 23 8 8 24 -1 24 -14z m1035 -8 c17 -4 29 -12 28
-17 -1 -5 -7 -25 -14 -44 -7 -19 -13 -40 -15 -47 -2 -8 -18 -5 -54 10 -38 16
-49 25 -44 37 4 8 12 30 18 48 9 27 15 32 31 27 11 -4 34 -10 50 -14z m-645
-91 c0 -5 -4 -10 -10 -10 -5 0 -10 5 -10 10 0 6 5 10 10 10 6 0 10 -4 10 -10z
m-615 -30 c0 -19 -6 -26 -24 -28 -33 -5 -46 11 -31 38 16 30 55 24 55 -10z
m1019 -39 c9 -15 -5 -71 -18 -71 -7 0 -20 6 -31 13 -27 20 -13 67 20 67 13 0
26 -4 29 -9z m-1256 -68 c17 -11 22 -21 18 -36 -3 -12 -6 -28 -6 -36 0 -10
-10 -12 -41 -8 -23 3 -45 9 -50 14 -4 4 -3 27 3 51 11 46 24 48 76 15z m604 2
c0 -5 -5 -11 -11 -13 -6 -2 -11 4 -11 13 0 9 5 15 11 13 6 -2 11 -8 11 -13z
m1031 -3 c48 -4 55 -10 36 -29 -5 -5 -14 -32 -18 -59 -5 -36 -11 -48 -22 -45
-27 8 -104 34 -108 37 -2 2 4 29 14 59 14 46 20 55 34 49 9 -4 37 -9 64 -12z
m-626 -92 c5 -26 -13 -43 -36 -35 -20 6 -28 34 -14 49 12 12 48 2 50 -14z
m-1270 -20 c26 -16 53 -30 61 -30 8 0 12 -6 9 -12 -2 -7 -10 -30 -18 -50 -13
-37 -14 -38 -64 -38 -27 0 -57 5 -65 10 -13 8 -13 13 3 39 9 16 17 48 17 70 0
23 2 41 5 41 2 0 26 -13 52 -30z m641 -32 c-2 -15 -10 -23 -23 -23 -13 0 -21
8 -23 23 -3 18 1 22 23 22 22 0 26 -4 23 -22z m1024 -53 c-2 -22 -7 -43 -11
-48 -4 -4 -25 -1 -47 7 -33 12 -39 17 -37 41 3 42 18 53 60 46 37 -6 38 -7 35
-46z m-649 -40 c1 -5 -6 -11 -15 -13 -11 -2 -18 3 -18 13 0 17 30 18 33 0z
m-615 -1 c19 -6 23 -12 20 -43 -2 -29 -7 -37 -27 -39 -34 -5 -71 6 -71 23 0 7
4 25 10 39 10 26 26 31 68 20z m1014 -76 c7 -20 -4 -58 -16 -58 -6 0 -22 7
-34 16 -18 12 -20 19 -12 35 12 21 56 26 62 7z m-1220 -104 c-4 -58 -13 -70
-40 -55 -11 6 -35 11 -53 11 -31 0 -32 0 -25 41 12 73 18 78 73 64 l48 -12 -3
-49z m583 36 c0 -19 -4 -24 -20 -22 -28 5 -37 16 -29 36 10 27 49 16 49 -14z
m1008 2 c31 -3 37 -7 32 -21 -4 -9 -10 -35 -12 -58 -3 -24 -10 -43 -15 -43
-19 0 -108 33 -108 40 0 4 5 22 11 41 6 19 13 40 15 48 3 8 10 10 22 5 9 -4
34 -9 55 -12z m-625 -94 c-2 -15 -10 -23 -23 -23 -13 0 -21 8 -23 23 -3 18 1
22 23 22 22 0 26 -4 23 -22z m-633 -8 c20 -7 26 -16 23 -33 -2 -18 -10 -23
-40 -25 -32 -3 -38 0 -38 17 0 26 10 51 20 51 5 0 21 -5 35 -10z m1033 -84 c4
-51 -7 -61 -52 -46 -37 12 -42 23 -30 68 6 19 12 23 43 20 34 -3 36 -5 39 -42z
m-633 -36 c9 -14 -7 -40 -24 -40 -26 0 -42 20 -31 41 10 17 44 16 55 -1z
m-603 -36 c-10 -68 -25 -78 -87 -54 -27 10 -28 14 -4 77 8 21 10 21 51 9 33
-10 42 -17 40 -32z m1601 16 c27 0 27 -1 27 -65 0 -69 -8 -78 -44 -50 -11 8
-34 15 -51 15 -18 0 -34 3 -37 6 -4 3 4 28 15 55 18 40 26 48 42 44 11 -2 32
-5 48 -5z m-618 -95 c0 -34 -20 -43 -49 -22 -28 21 -13 59 22 55 23 -2 27 -8
27 -33z m-637 -7 c7 -7 12 -23 12 -36 0 -19 -5 -23 -22 -20 -23 3 -34 28 -24
54 7 17 18 18 34 2z m-618 -12 c50 -15 54 -23 42 -81 -9 -43 -10 -44 -87 -27
-27 6 -39 13 -36 23 2 8 8 33 13 57 11 48 8 46 68 28z m1636 -36 c21 0 24 -4
24 -37 0 -60 -9 -66 -64 -51 -45 12 -47 14 -42 42 8 37 25 58 43 51 8 -3 26
-5 39 -5z m-616 -56 c10 -11 -19 -39 -44 -42 -22 -3 -26 1 -26 21 0 13 3 27 7
31 7 7 53 -1 63 -10z m-641 -25 c26 -9 31 -16 31 -44 0 -42 -9 -48 -51 -34
-47 16 -51 21 -38 57 12 36 14 36 58 21z m1031 -102 c0 -45 -6 -49 -48 -31
-45 19 -45 18 -37 43 5 17 15 21 46 21 38 0 39 -1 39 -33z m-1229 -44 c11 -11
4 -90 -9 -96 -4 -2 -30 6 -59 18 -40 16 -50 24 -42 36 5 8 9 26 9 40 0 14 2
28 5 31 8 8 82 -15 96 -29z m599 3 c0 -31 -13 -39 -50 -31 -49 11 -32 55 22
55 23 0 28 -4 28 -24z m993 -2 c25 -6 27 -10 27 -60 0 -29 -4 -55 -9 -58 -13
-8 -116 19 -116 30 0 5 6 31 14 57 12 42 17 48 35 43 12 -4 33 -9 49 -12z
m-642 -54 c13 -8 19 -21 19 -45 0 -32 -3 -35 -27 -35 -49 0 -56 12 -37 53 20
42 18 41 45 27z m-1220 -54 l42 -13 -1 -51 c0 -29 -1 -56 -1 -62 -1 -5 -28 -7
-68 -4 -96 8 -98 9 -74 40 14 18 21 41 21 69 0 47 7 60 26 44 7 -6 32 -16 55
-23z m637 12 c17 -17 15 -77 -2 -84 -13 -5 -96 13 -96 20 0 2 7 20 15 40 12
29 21 36 43 36 15 0 33 -5 40 -12z m1009 -64 c3 -8 2 -30 -2 -50 -6 -35 -7
-36 -43 -29 -20 4 -45 11 -54 16 -17 9 -17 12 1 47 18 35 22 38 56 34 20 -2
39 -11 42 -18z m-629 -67 c4 -45 -13 -55 -57 -32 -34 17 -37 26 -20 56 8 15
19 19 42 17 29 -3 32 -6 35 -41z m-617 -3 c7 -9 8 -26 2 -51 l-9 -37 -49 3
c-28 1 -53 5 -57 7 -4 3 4 26 18 52 23 44 28 48 54 44 16 -2 34 -10 41 -18z
m975 -60 c22 -6 25 -11 22 -43 l-3 -36 -50 0 c-45 0 -50 2 -48 21 4 43 23 76
39 70 9 -3 27 -9 40 -12z m-1268 -49 c15 -8 39 -19 54 -25 25 -8 27 -12 18
-35 -6 -15 -10 -37 -10 -50 0 -23 -2 -23 -57 -18 -32 3 -62 9 -66 13 -5 4 -2
21 7 38 9 17 16 45 16 62 0 34 2 35 38 15z m656 2 c25 -18 18 -71 -9 -75 -11
-1 -31 4 -45 11 -24 12 -27 28 -15 65 6 16 46 16 69 -1z m1015 -44 c9 -7 11
-112 3 -117 -10 -6 -102 20 -114 32 -5 5 -1 29 8 55 l16 47 41 -6 c23 -4 44
-9 46 -11z m-651 -39 c20 -6 23 -12 20 -48 -3 -40 -4 -41 -38 -38 -47 4 -53
12 -35 55 16 39 17 40 53 31z m-600 -40 c19 -5 22 -13 22 -50 0 -53 -10 -59
-65 -40 -47 17 -51 25 -30 65 16 31 30 36 73 25z m1011 -63 c9 -6 11 -20 6
-50 -8 -50 -14 -54 -56 -40 -49 17 -53 23 -39 63 10 31 16 36 43 36 18 0 38
-4 46 -9z m-616 -48 c9 -5 -1 -74 -13 -86 -10 -12 -90 13 -90 28 0 7 5 27 11
44 11 31 14 32 48 26 20 -4 39 -9 44 -12z m-630 -23 c23 0 25 -3 26 -55 0 -58
-17 -81 -42 -56 -6 6 -30 11 -54 11 -24 0 -43 3 -43 7 0 3 12 30 26 59 22 46
29 52 44 44 10 -6 30 -10 43 -10z m1656 -16 c2 -2 -2 -17 -8 -35 -6 -18 -11
-49 -11 -70 0 -42 -5 -46 -35 -25 -11 7 -39 16 -63 19 -24 3 -46 7 -48 9 -2 3
10 30 27 61 l30 56 52 -6 c29 -3 54 -7 56 -9z m-662 -55 c13 -5 21 -14 19 -21
-3 -7 -7 -25 -10 -40 -7 -29 -32 -36 -84 -22 -25 7 -25 19 -2 79 10 27 14 28
77 4z m-623 -25 c39 -7 43 -18 30 -83 -7 -31 -7 -32 -53 -26 -61 9 -81 15 -81
25 0 5 9 29 20 55 14 32 25 45 34 42 8 -3 31 -9 50 -13z m1019 -60 c15 -5 17
-13 11 -57 -4 -29 -10 -56 -14 -60 -4 -5 -21 -2 -38 7 -17 9 -42 16 -55 16
-33 0 -37 7 -23 43 7 18 16 40 20 51 5 15 13 17 44 12 20 -4 45 -9 55 -12z
m-613 -91 c0 -68 -6 -74 -60 -61 -62 15 -66 21 -44 68 18 37 22 40 62 40 l42
0 0 -47z m-652 8 c31 -12 33 -17 28 -44 -3 -16 -6 -36 -6 -43 0 -10 -15 -14
-56 -14 -50 0 -55 2 -49 18 9 21 27 72 32 90 1 8 6 12 11 10 4 -3 22 -10 40
-17z m1023 -70 c10 -10 -5 -106 -16 -106 -42 3 -105 19 -105 29 0 6 10 30 22
53 22 41 25 43 58 37 19 -4 38 -9 41 -13z m-617 -38 c10 -7 1 -82 -12 -95 -7
-7 -63 10 -91 29 -2 2 1 21 8 44 12 40 13 41 49 34 20 -4 41 -9 46 -12z m922
-18 c10 -8 39 -15 63 -15 40 0 43 -2 36 -22 -4 -13 -9 -47 -12 -75 -6 -55 -15
-62 -47 -38 -11 8 -39 15 -63 15 -46 0 -53 11 -28 44 8 11 15 39 15 63 0 46 6
51 36 28z m-536 -141 c0 -30 -4 -54 -8 -54 -4 0 -25 9 -47 20 -22 11 -47 20
-57 20 -22 0 -22 -1 1 54 l20 45 45 -15 46 -16 0 -54z m-607 26 c5 -4 4 -17
-2 -28 -6 -11 -11 -35 -11 -53 0 -29 -2 -31 -27 -24 -16 3 -43 9 -60 12 -37 6
-37 6 -21 68 l12 45 51 -6 c27 -4 54 -10 58 -14z m970 -47 c34 -5 38 -9 32
-27 -4 -12 -9 -42 -12 -68 -3 -27 -9 -48 -14 -48 -5 0 -23 9 -41 20 -18 11
-41 20 -50 20 -26 0 -28 12 -11 69 13 47 18 52 37 46 11 -3 38 -9 59 -12z
m-673 -28 c7 -8 27 -15 46 -15 18 0 35 -4 38 -8 2 -4 -2 -29 -11 -55 l-16 -48
-46 6 c-70 10 -73 12 -61 34 5 11 10 35 10 54 0 48 16 61 40 32z m428 -117
c29 -8 33 -13 28 -31 -4 -12 -9 -37 -13 -55 -5 -29 -9 -33 -27 -27 -12 4 -38
9 -58 12 -44 6 -46 15 -16 78 16 33 26 44 38 39 8 -3 30 -11 48 -16z m-591
-110 c1 -65 -7 -76 -39 -54 -12 9 -39 16 -59 16 -19 0 -38 3 -42 6 -3 4 2 23
13 43 11 20 22 48 25 63 l5 27 48 -22 47 -21 2 -58z m915 42 c18 -11 50 -20
71 -20 20 0 37 -2 37 -4 0 -2 -7 -20 -16 -41 -10 -25 -13 -50 -9 -76 8 -44 2
-47 -40 -19 -19 13 -47 20 -77 20 -27 0 -48 3 -48 8 0 4 9 21 20 37 12 18 20
47 20 73 0 23 2 42 5 42 2 0 19 -9 37 -20z m-525 -65 c9 -3 9 -12 -2 -39 -8
-20 -15 -46 -15 -60 0 -24 -1 -24 -62 -19 -35 3 -66 9 -70 12 -5 4 1 25 12 46
11 22 20 47 20 57 0 15 7 16 53 12 28 -3 57 -7 64 -9z"/>
<path d="M6822 9418 c-23 -23 -14 -38 24 -38 31 0 35 3 32 23 -3 25 -36 35
-56 15z"/>
<path d="M5970 9298 c-21 -12 -25 -21 -28 -70 -2 -41 1 -60 13 -72 24 -24 65
-20 97 11 22 21 28 36 28 69 0 23 -6 47 -13 53 -23 18 -70 22 -97 9z"/>
<path d="M5755 9101 c-8 -25 1 -41 21 -41 11 0 14 8 12 27 -4 33 -24 41 -33
14z"/>
<path d="M5859 8927 c-31 -21 -34 -28 -37 -79 -3 -49 0 -58 20 -72 37 -26 91
-20 128 14 27 25 31 35 28 72 -2 35 -9 46 -37 65 -43 29 -59 29 -102 0z"/>
<path d="M6850 8873 c-27 -10 -40 -36 -40 -80 0 -35 6 -49 27 -69 43 -40 67
-40 114 -3 39 31 41 35 36 73 -9 67 -71 103 -137 79z"/>
<path d="M5640 8741 c-16 -31 4 -71 35 -71 18 0 26 7 31 24 13 52 -42 91 -66
47z"/>
<path d="M6977 8612 c-26 -29 -21 -83 11 -121 32 -38 57 -38 105 0 36 28 39
100 5 123 -31 22 -101 21 -121 -2z"/>
<path d="M5526 8374 c-19 -18 -21 -75 -4 -92 7 -7 28 -12 48 -12 44 0 60 15
60 56 0 40 -22 64 -60 64 -16 0 -36 -7 -44 -16z"/>
<path d="M7121 8366 c-7 -8 -11 -35 -9 -62 2 -41 7 -51 30 -63 25 -14 29 -14
55 5 15 12 35 33 43 47 13 24 13 30 0 55 -13 22 -23 28 -61 30 -31 2 -50 -2
-58 -12z"/>
<path d="M7264 8105 c-15 -23 -15 -27 0 -50 12 -18 25 -25 49 -25 40 0 57 15
57 50 0 35 -17 50 -57 50 -24 0 -37 -7 -49 -25z"/>
<path d="M5426 8024 c-25 -25 -20 -87 10 -123 32 -39 48 -39 85 -2 38 38 41
101 7 125 -29 20 -82 20 -102 0z"/>
<path d="M7414 7866 c-15 -12 -17 -18 -8 -33 14 -23 53 -28 78 -10 15 11 17
17 7 35 -14 25 -48 29 -77 8z"/>
<path d="M5302 7648 c-7 -7 -12 -30 -12 -52 0 -92 86 -132 150 -71 37 35 39
72 5 109 -20 22 -33 26 -78 26 -29 0 -58 -5 -65 -12z"/>
<path d="M7555 7630 c-8 -13 13 -50 29 -50 20 0 39 27 32 45 -6 17 -51 21 -61
5z"/>
<path d="M5113 7474 c-7 -3 -13 -17 -13 -30 0 -21 4 -24 41 -24 38 0 40 1 37
28 -2 21 -9 27 -28 29 -14 1 -31 -1 -37 -3z"/>
<path d="M7420 7310 c-19 -19 -22 -30 -17 -73 3 -41 10 -56 36 -79 37 -33 55
-35 99 -8 86 53 55 162 -50 176 -39 5 -49 3 -68 -16z"/>
<path d="M5233 7290 c-44 -26 -56 -54 -48 -106 8 -53 24 -64 94 -64 67 0 91
22 91 85 0 49 -20 78 -66 95 -33 13 -34 13 -71 -10z"/>
<path d="M5010 7099 c-25 -45 12 -89 60 -74 48 15 31 95 -20 95 -19 0 -33 -7
-40 -21z"/>
<path d="M7572 7064 c-32 -22 -30 -83 4 -123 21 -25 34 -31 64 -31 50 0 70 21
70 71 0 76 -80 124 -138 83z"/>
<path d="M5153 6929 c-42 -12 -73 -53 -73 -96 0 -26 8 -43 34 -69 47 -47 84
-46 138 4 39 37 41 40 29 72 -16 47 -59 100 -79 99 -9 0 -31 -5 -49 -10z"/>
<path d="M7718 6819 c-45 -26 2 -139 58 -139 35 0 64 34 64 75 0 45 -29 75
-72 75 -18 0 -41 -5 -50 -11z"/>
<path d="M4898 6739 c-42 -24 -1 -109 52 -109 32 0 50 23 50 63 0 46 -58 72
-102 46z"/>
<path d="M7856 6558 c-34 -48 -10 -98 48 -98 41 0 56 16 56 60 0 45 -15 60
-56 60 -23 0 -38 -7 -48 -22z"/>
<path d="M5034 6550 c-72 -29 -70 -156 3 -189 59 -27 107 -8 134 55 21 47 19
57 -25 117 -15 21 -28 27 -55 26 -20 0 -46 -4 -57 -9z"/>
<path d="M7602 6464 c-52 -41 -57 -67 -25 -126 47 -86 109 -96 166 -28 52 62
45 112 -22 157 -44 30 -78 29 -119 -3z"/>
<path d="M4810 6373 c-37 -15 -39 -51 -4 -92 30 -36 46 -39 74 -11 23 23 26
58 8 83 -15 18 -56 29 -78 20z"/>
<path d="M8002 6318 c-28 -28 -3 -88 37 -88 10 0 26 9 36 20 27 30 10 74 -30
78 -17 2 -36 -3 -43 -10z"/>
<path d="M7790 6243 c-8 -3 -27 -15 -42 -25 -23 -16 -28 -27 -28 -62 0 -95 70
-141 140 -94 33 23 35 27 35 82 0 51 -3 61 -25 77 -30 21 -60 29 -80 22z"/>
<path d="M4909 6141 c-36 -36 -38 -75 -6 -122 20 -30 29 -34 71 -37 39 -3 53
1 73 20 36 33 46 65 33 104 -15 45 -45 64 -98 64 -35 0 -49 -6 -73 -29z"/>
<path d="M8160 6045 c0 -36 15 -46 38 -23 17 17 15 45 -4 52 -29 11 -34 6 -34
-29z"/>
<path d="M4690 5984 c-8 -8 -13 -28 -13 -44 0 -59 55 -80 105 -40 56 44 36
100 -36 100 -27 0 -48 -6 -56 -16z"/>
<path d="M7898 5979 c-39 -29 -39 -94 -2 -138 33 -39 63 -40 103 -2 40 38 42
86 5 130 -31 37 -66 40 -106 10z"/>
<path d="M7650 5873 c-38 -15 -50 -36 -50 -88 0 -42 6 -60 29 -93 16 -22 34
-43 40 -46 21 -14 83 7 117 39 30 29 34 38 34 83 0 74 -28 104 -101 108 -30 2
-61 1 -69 -3z"/>
<path d="M4832 5785 c-37 -27 -55 -72 -43 -108 25 -70 85 -95 145 -58 38 24
46 38 46 86 0 71 -92 120 -148 80z"/>
<path d="M8040 5721 c-36 -35 -37 -48 -7 -92 28 -42 56 -47 92 -16 33 28 36
67 8 105 -28 38 -57 39 -93 3z"/>
<path d="M4598 5619 c-29 -17 -23 -63 13 -93 34 -29 37 -30 73 -16 23 8 26 15
26 54 0 35 -5 48 -19 56 -25 13 -71 12 -93 -1z"/>
<path d="M7783 5611 c-55 -34 -56 -120 -1 -166 34 -29 75 -32 118 -10 37 19
50 43 50 93 0 85 -90 130 -167 83z"/>
<path d="M4982 5573 c-80 -39 -97 -118 -37 -178 30 -29 43 -35 80 -35 65 0
105 37 105 97 0 58 -11 77 -64 108 -50 29 -43 29 -84 8z"/>
<path d="M8185 5475 c-14 -13 -25 -33 -25 -43 0 -44 72 -69 104 -36 19 18 21
75 4 92 -19 19 -57 14 -83 -13z"/>
<path d="M4390 5436 c0 -14 4 -27 9 -30 13 -9 32 19 25 38 -10 25 -34 19 -34
-8z"/>
<path d="M4710 5401 c-23 -44 -5 -128 34 -160 23 -19 79 -6 110 26 35 35 36
90 1 127 -20 22 -32 26 -79 26 -44 0 -57 -4 -66 -19z"/>
<path d="M7929 5361 c-54 -54 -54 -97 -2 -140 43 -36 80 -39 115 -11 50 39 44
130 -11 167 -46 31 -57 29 -102 -16z"/>
<path d="M5076 5315 c-22 -21 -26 -32 -26 -84 0 -54 3 -62 31 -85 37 -32 68
-40 113 -32 81 15 116 129 60 195 -24 29 -31 31 -88 31 -53 0 -67 -4 -90 -25z"/>
<path d="M7683 5260 c-33 -14 -46 -47 -41 -108 4 -47 10 -60 37 -84 62 -56
158 -30 182 51 29 96 -79 181 -178 141z"/>
<path d="M8325 5244 c-23 -23 -15 -66 14 -80 55 -27 95 32 52 75 -25 25 -44
26 -66 5z"/>
<path d="M4500 5231 c-34 -64 27 -125 91 -91 22 12 27 78 7 98 -20 20 -86 15
-98 -7z"/>
<path d="M4895 5193 c-32 -8 -64 -44 -70 -77 -12 -69 24 -119 96 -131 31 -6
41 -2 73 25 30 27 36 39 36 72 0 53 -23 94 -61 107 -33 11 -41 12 -74 4z"/>
<path d="M8080 5133 c-31 -16 -35 -23 -38 -62 -4 -47 12 -72 59 -96 23 -13 30
-11 60 9 19 13 41 35 48 50 13 24 12 29 -16 69 -35 48 -62 56 -113 30z"/>
<path d="M4288 5079 c-10 -5 -18 -19 -18 -29 0 -16 7 -20 35 -20 39 0 46 17
19 44 -8 9 -16 16 -17 16 -1 0 -10 -5 -19 -11z"/>
<path d="M4631 5024 c-25 -21 -31 -34 -31 -64 0 -48 40 -100 77 -100 29 0 103
68 103 93 0 24 -74 97 -98 97 -11 0 -34 -12 -51 -26z"/>
<path d="M7821 5004 c-26 -22 -31 -33 -31 -71 0 -97 72 -148 150 -108 37 19
50 43 50 91 0 29 -8 44 -39 75 -47 47 -85 51 -130 13z"/>
<path d="M8464 4985 c-21 -32 -12 -55 21 -55 37 0 65 17 65 40 0 20 -27 40
-54 40 -9 0 -23 -11 -32 -25z"/>
<path d="M5014 4951 c-71 -43 -80 -89 -33 -163 27 -42 35 -48 66 -48 46 0 90
24 113 63 26 42 25 66 -5 107 -45 61 -88 73 -141 41z"/>
<path d="M7584 4886 c-37 -16 -44 -32 -44 -95 0 -33 7 -58 23 -82 21 -32 27
-34 84 -37 56 -3 63 -1 92 28 35 36 41 82 16 130 -33 65 -100 87 -171 56z"/>
<path d="M8210 4876 c-45 -49 -14 -128 53 -134 29 -3 39 2 53 23 19 30 15 112
-7 126 -27 17 -75 10 -99 -15z"/>
<path d="M4406 4864 c-18 -18 -21 -56 -6 -85 12 -22 78 -27 98 -7 20 20 15 86
-7 98 -29 15 -67 12 -85 -6z"/>
<path d="M4768 4790 c-51 -42 -55 -62 -23 -115 26 -45 50 -65 80 -65 34 0 105
75 105 111 0 8 -16 34 -36 57 -44 52 -74 54 -126 12z"/>
<path d="M7985 4768 c-35 -19 -45 -41 -45 -100 0 -68 11 -78 93 -78 68 0 87
18 87 84 0 39 -5 53 -29 77 -31 31 -70 37 -106 17z"/>
<path d="M8615 4744 c-20 -21 -15 -38 14 -42 40 -6 52 4 39 33 -13 29 -30 32
-53 9z"/>
<path d="M5157 4730 c-49 -15 -57 -28 -57 -95 0 -54 4 -68 26 -95 25 -29 30
-31 87 -28 57 3 63 5 84 37 31 46 31 110 1 138 -28 25 -82 53 -100 52 -7 0
-26 -5 -41 -9z"/>
<path d="M4184 4684 c-4 -17 -1 -31 9 -41 24 -24 47 -9 47 32 0 31 -3 35 -25
35 -18 0 -26 -7 -31 -26z"/>
<path d="M8378 4644 c-49 -26 -64 -86 -30 -117 26 -24 56 -21 91 9 39 33 43
84 9 108 -27 19 -35 19 -70 0z"/>
<path d="M4532 4638 c-35 -35 5 -148 53 -148 20 0 95 68 95 86 0 15 -31 62
-45 68 -28 10 -90 7 -103 -6z"/>
<path d="M7735 4638 c-34 -18 -45 -40 -45 -89 0 -38 6 -53 29 -78 25 -26 36
-31 78 -31 75 0 93 18 93 94 0 87 -22 116 -88 116 -26 0 -56 -6 -67 -12z"/>
<path d="M4930 4583 c-44 -16 -60 -45 -60 -109 0 -76 18 -94 93 -94 39 0 53 5
72 26 46 50 42 97 -13 157 -25 26 -56 33 -92 20z"/>
<path d="M7497 4512 c-42 -28 -56 -53 -57 -100 0 -76 42 -122 113 -122 41 0
95 33 107 66 21 53 12 84 -34 130 -49 49 -83 56 -129 26z"/>
<path d="M8096 4508 c-9 -12 -16 -42 -16 -65 0 -58 25 -83 83 -83 65 0 82 17
82 83 0 72 -14 87 -81 87 -43 0 -56 -4 -68 -22z"/>
<path d="M4312 4494 c-34 -23 -27 -83 11 -104 24 -13 30 -13 55 0 37 21 44 81
10 104 -12 9 -29 16 -38 16 -9 0 -26 -7 -38 -16z"/>
<path d="M5265 4486 c-9 -7 -23 -36 -31 -66 -13 -52 -13 -55 11 -97 38 -64 84
-80 145 -48 42 22 60 53 60 107 0 69 -35 104 -112 111 -36 4 -62 1 -73 -7z"/>
<path d="M4660 4410 c-25 -25 -27 -95 -4 -128 12 -17 25 -22 60 -22 53 0 87
20 104 60 31 76 -100 150 -160 90z"/>
<path d="M8496 4394 c-24 -24 -20 -80 6 -98 12 -9 30 -16 40 -16 28 0 58 37
58 69 0 51 -69 81 -104 45z"/>
<path d="M7863 4380 c-46 -42 -37 -131 16 -163 42 -25 75 -21 110 12 24 23 31
37 31 68 0 36 -20 78 -44 95 -22 16 -92 8 -113 -12z"/>
<path d="M5040 4334 c-36 -26 -40 -33 -40 -91 0 -67 27 -102 86 -110 36 -5 45
-1 77 27 33 28 37 38 37 79 0 65 -31 101 -90 108 -33 3 -52 0 -70 -13z"/>
<path d="M4087 4333 c-11 -10 -8 -61 4 -68 17 -11 69 16 69 36 0 27 -54 51
-73 32z"/>
<path d="M4432 4268 c-7 -7 -12 -33 -12 -59 0 -38 5 -51 22 -63 52 -37 118 -5
118 57 0 52 -24 77 -74 77 -23 0 -47 -5 -54 -12z"/>
<path d="M7647 4270 c-48 -15 -57 -29 -57 -84 0 -49 17 -89 44 -108 6 -4 37
-8 68 -8 76 0 88 13 88 95 0 59 -2 65 -29 84 -35 26 -76 33 -114 21z"/>
<path d="M8240 4261 c-27 -51 8 -141 55 -141 29 0 95 62 95 89 0 10 -11 30
-25 45 -31 34 -108 38 -125 7z"/>
<path d="M5448 4260 c-60 -11 -78 -34 -78 -97 0 -64 21 -110 56 -123 83 -32
162 11 171 92 5 43 3 49 -33 86 -44 46 -63 53 -116 42z"/>
<path d="M4801 4174 c-41 -34 -43 -88 -5 -133 22 -27 32 -31 74 -31 63 0 80
17 80 80 0 97 -80 142 -149 84z"/>
<path d="M8000 4140 c-14 -14 -20 -33 -20 -68 0 -62 20 -82 81 -82 91 0 134
89 68 144 -39 33 -99 36 -129 6z"/>
<path d="M8642 4148 c-7 -7 -12 -24 -12 -38 0 -31 17 -50 45 -50 28 0 45 19
45 50 0 31 -17 50 -45 50 -12 0 -26 -5 -33 -12z"/>
<path d="M7404 4131 c-66 -40 -82 -101 -41 -161 12 -19 37 -43 56 -54 33 -19
34 -19 68 -1 53 29 73 60 73 114 0 53 -10 70 -60 100 -43 26 -57 26 -96 2z"/>
<path d="M4215 4105 c-43 -42 -23 -95 35 -95 35 0 60 23 60 56 0 64 -50 85
-95 39z"/>
<path d="M5206 4110 c-52 -16 -66 -37 -66 -100 0 -86 17 -102 105 -102 86 0
105 17 105 96 0 55 -15 78 -67 105 -25 13 -36 13 -77 1z"/>
<path d="M4578 4033 c-35 -22 -39 -33 -27 -77 18 -66 88 -94 136 -55 17 14 18
120 1 137 -17 17 -78 14 -110 -5z"/>
<path d="M7759 4001 c-53 -54 -33 -140 40 -171 17 -7 42 -9 56 -6 27 7 85 79
85 106 0 9 -16 35 -36 58 -31 36 -41 42 -76 42 -30 0 -46 -7 -69 -29z"/>
<path d="M8392 4018 c-21 -21 -14 -73 13 -102 13 -14 31 -26 40 -26 24 0 75
55 75 80 0 45 -18 60 -68 60 -27 0 -53 -5 -60 -12z"/>
<path d="M5520 3988 c-12 -20 -20 -51 -20 -77 0 -37 6 -49 39 -82 33 -33 45
-39 81 -39 34 0 48 6 75 33 48 48 53 77 21 132 -33 56 -50 65 -120 65 -53 0
-58 -2 -76 -32z"/>
<path d="M7142 3987 c-11 -12 -28 -39 -37 -60 -15 -37 -15 -40 10 -83 36 -61
64 -78 122 -71 57 6 88 37 98 97 6 35 3 47 -19 79 -31 44 -62 61 -115 61 -26
0 -44 -7 -59 -23z"/>
<path d="M3993 3963 c-19 -7 -16 -62 3 -70 21 -8 64 13 64 31 0 8 -10 22 -22
30 -24 17 -26 17 -45 9z"/>
<path d="M4949 3955 c-47 -26 -47 -131 0 -164 53 -37 77 -35 129 12 15 15 22
32 22 59 0 50 -13 74 -50 93 -36 19 -67 19 -101 0z"/>
<path d="M5941 3931 c-36 -10 -63 -53 -68 -108 -4 -42 -1 -54 26 -90 39 -53
87 -66 140 -37 50 27 83 80 75 119 -11 53 -33 84 -74 105 -41 21 -58 23 -99
11z"/>
<path d="M8146 3894 c-25 -25 -20 -87 10 -123 40 -48 84 -41 114 20 25 49 25
51 -6 88 -21 25 -34 31 -64 31 -22 0 -45 -7 -54 -16z"/>
<path d="M8788 3899 c-25 -14 -22 -36 7 -55 23 -15 27 -15 50 0 14 9 25 22 25
29 0 33 -46 47 -82 26z"/>
<path d="M4342 3877 c-29 -30 -28 -58 3 -91 29 -31 67 -34 95 -6 23 23 24 29
11 63 -22 59 -72 74 -109 34z"/>
<path d="M7521 3869 c-25 -25 -31 -39 -31 -76 0 -36 6 -50 31 -75 28 -29 33
-30 87 -25 70 7 82 22 82 98 0 52 -3 60 -31 83 -44 38 -98 36 -138 -5z"/>
<path d="M6934 3866 c-83 -36 -98 -131 -30 -193 57 -53 114 -56 162 -8 19 19
24 35 24 75 0 65 -10 83 -64 115 -49 29 -50 29 -92 11z"/>
<path d="M5314 3862 c-18 -12 -44 -69 -44 -98 0 -17 13 -39 39 -65 32 -33 45
-39 80 -39 70 0 111 58 97 136 -11 56 -36 74 -103 74 -32 0 -63 -4 -69 -8z"/>
<path d="M6342 3830 c-63 -15 -107 -80 -95 -141 8 -39 62 -95 102 -104 36 -8
79 12 115 55 48 58 26 149 -46 186 -30 15 -29 15 -76 4z"/>
<path d="M4740 3813 c-38 -14 -50 -36 -50 -93 0 -67 11 -80 64 -80 81 0 123
84 75 151 -20 28 -51 36 -89 22z"/>
<path d="M5697 3772 c-59 -39 -70 -80 -41 -152 20 -49 38 -60 102 -60 92 0
139 78 97 160 -34 66 -102 88 -158 52z"/>
<path d="M8540 3770 c-38 -38 -14 -84 45 -84 40 0 55 15 55 57 0 20 -7 30 -26
37 -37 14 -52 12 -74 -10z"/>
<path d="M7906 3755 c-51 -47 -29 -126 45 -153 27 -11 49 -3 87 31 29 27 30
84 1 121 -28 36 -94 37 -133 1z"/>
<path d="M7305 3748 c-36 -19 -45 -41 -45 -104 0 -72 14 -93 63 -95 62 -2 82
3 110 29 22 21 27 34 27 76 0 67 -35 106 -94 106 -23 0 -50 -6 -61 -12z"/>
<path d="M4126 3724 c-20 -19 -21 -58 -2 -73 25 -21 69 -9 80 21 17 50 -42 89
-78 52z"/>
<path d="M6666 3709 c-23 -18 -26 -27 -26 -85 0 -59 3 -68 29 -95 24 -24 38
-29 76 -29 59 0 83 13 101 55 23 55 18 96 -17 138 -28 34 -34 37 -83 37 -39 0
-61 -6 -80 -21z"/>
<path d="M5065 3695 c-38 -37 -34 -88 9 -131 40 -40 75 -44 124 -14 56 35 65
99 20 148 -32 33 -119 32 -153 -3z"/>
<path d="M6058 3660 c-33 -27 -38 -37 -38 -72 0 -44 30 -102 60 -118 36 -19
96 -12 130 16 29 25 31 29 28 92 -3 56 -6 67 -28 83 -14 10 -45 21 -70 24 -40
5 -49 3 -82 -25z"/>
<path d="M4477 3642 c-26 -28 -22 -97 5 -116 29 -20 82 -20 102 0 24 24 22
110 -3 124 -31 16 -86 12 -104 -8z"/>
<path d="M7682 3630 c-58 -42 -62 -69 -21 -130 27 -40 40 -50 62 -50 37 0 78
30 102 74 l19 35 -27 39 c-25 35 -62 62 -86 62 -4 0 -27 -13 -49 -30z"/>
<path d="M8289 3644 c-23 -28 -17 -93 10 -115 33 -27 48 -24 87 15 37 37 42
60 18 94 -19 28 -94 31 -115 6z"/>
<path d="M8920 3652 c0 -5 6 -16 13 -26 18 -24 51 -17 55 12 3 19 -1 22 -32
22 -20 0 -36 -4 -36 -8z"/>
<path d="M5452 3610 c-36 -35 -45 -74 -27 -117 20 -48 56 -66 117 -61 67 7 80
24 76 103 -3 55 -5 61 -37 82 -48 32 -92 30 -129 -7z"/>
<path d="M7085 3618 c-42 -23 -75 -62 -75 -89 0 -72 45 -129 102 -129 32 0 47
8 85 43 45 43 45 43 34 84 -13 47 -69 103 -104 103 -12 0 -31 -6 -42 -12z"/>
<path d="M3896 3574 c-20 -19 -5 -54 23 -54 29 0 45 25 31 49 -13 25 -33 27
-54 5z"/>
<path d="M6448 3571 c-32 -26 -62 -93 -54 -124 8 -33 62 -85 96 -92 16 -4 44
0 64 9 70 29 86 139 29 198 -33 35 -97 39 -135 9z"/>
<path d="M4857 3564 c-52 -28 -55 -86 -7 -134 14 -14 33 -20 65 -20 75 0 105
51 70 120 -26 50 -74 63 -128 34z"/>
<path d="M8686 3544 c-19 -18 -21 -75 -4 -92 7 -7 24 -12 38 -12 34 0 50 17
50 55 0 54 -51 83 -84 49z"/>
<path d="M5816 3519 c-22 -17 -26 -28 -26 -73 0 -59 21 -90 79 -120 28 -15 34
-15 60 -2 37 20 81 72 81 97 0 26 -16 58 -48 92 -33 35 -105 38 -146 6z"/>
<path d="M8053 3525 c-18 -12 -23 -26 -23 -60 0 -38 4 -47 33 -69 44 -34 70
-33 101 5 30 35 36 99 11 119 -25 21 -97 24 -122 5z"/>
<path d="M4246 3488 c-32 -46 -6 -98 48 -98 19 0 39 7 46 15 16 19 15 71 -1
91 -19 23 -75 18 -93 -8z"/>
<path d="M7419 3493 c-20 -24 -14 -144 8 -160 24 -18 114 -16 141 3 19 13 22
24 22 79 0 83 -12 95 -94 95 -47 0 -67 -4 -77 -17z"/>
<path d="M5254 3489 c-50 -14 -66 -39 -62 -100 3 -48 6 -56 37 -76 43 -29 59
-29 102 0 30 20 34 29 37 71 3 39 -2 54 -23 82 -27 35 -39 38 -91 23z"/>
<path d="M6834 3480 c-34 -13 -54 -50 -54 -97 0 -60 13 -86 52 -107 44 -24 75
-17 122 28 29 26 36 41 36 70 0 90 -73 140 -156 106z"/>
<path d="M6186 3415 c-31 -28 -36 -88 -11 -135 20 -39 43 -50 103 -50 37 0 53
5 70 23 32 35 44 74 33 114 -17 60 -36 73 -106 73 -52 0 -66 -4 -89 -25z"/>
<path d="M4618 3409 c-22 -16 -28 -29 -28 -59 0 -42 13 -57 57 -66 24 -5 37 0
67 26 43 38 44 49 10 89 -31 37 -66 40 -106 10z"/>
<path d="M8446 3404 c-48 -49 -27 -114 38 -114 43 0 56 16 56 70 0 25 -5 51
-12 58 -20 20 -54 14 -82 -14z"/>
<path d="M9077 3414 c-16 -16 -6 -34 19 -34 19 0 25 5 22 17 -3 19 -29 29 -41
17z"/>
<path d="M7811 3384 c-38 -32 -39 -54 -3 -111 31 -50 48 -58 88 -43 48 19 64
39 64 85 0 83 -85 123 -149 69z"/>
<path d="M5608 3384 c-35 -18 -48 -43 -48 -89 0 -50 14 -71 61 -95 39 -21 41
-21 77 -3 43 22 55 55 47 131 -6 45 -11 55 -31 63 -36 13 -75 11 -106 -7z"/>
<path d="M7210 3373 c-37 -14 -50 -36 -50 -88 0 -45 5 -58 29 -84 44 -47 113
-39 159 17 22 28 14 81 -19 123 -26 33 -36 39 -67 38 -21 0 -44 -3 -52 -6z"/>
<path d="M4022 3348 c-7 -7 -12 -25 -12 -40 0 -52 79 -59 95 -8 14 46 -49 82
-83 48z"/>
<path d="M4991 3324 c-35 -29 -40 -67 -16 -114 28 -55 68 -63 114 -24 41 34
44 97 6 138 -31 33 -65 33 -104 0z"/>
<path d="M6560 3308 c-34 -57 -22 -112 35 -160 23 -20 67 -23 95 -8 11 6 31
31 46 55 29 50 28 75 -7 118 -18 24 -27 27 -85 27 -62 0 -65 -1 -84 -32z"/>
<path d="M8832 3298 c-27 -27 -1 -97 32 -85 20 8 38 54 31 78 -7 22 -45 25
-63 7z"/>
<path d="M6020 3293 c-46 -7 -70 -26 -81 -63 -17 -56 1 -101 52 -129 35 -20
44 -21 70 -10 35 14 79 74 79 107 0 38 -27 79 -61 91 -18 6 -32 10 -33 10 -1
-1 -12 -4 -26 -6z"/>
<path d="M8202 3283 c-26 -10 -33 -52 -15 -90 43 -91 147 -55 128 44 -3 18
-14 37 -25 43 -20 10 -66 12 -88 3z"/>
<path d="M4385 3255 c-32 -31 -31 -46 1 -84 31 -38 44 -38 83 -5 33 28 43 78
19 102 -21 21 -77 14 -103 -13z"/>
<path d="M7560 3241 c-15 -28 -12 -104 4 -127 17 -23 103 -27 129 -5 20 16 24
120 5 139 -7 7 -38 12 -70 12 -46 0 -59 -4 -68 -19z"/>
<path d="M5346 3228 c-18 -26 -20 -65 -6 -102 27 -72 96 -88 149 -35 34 34 39
65 16 109 -20 38 -43 50 -99 50 -35 0 -48 -5 -60 -22z"/>
<path d="M6961 3214 c-26 -21 -31 -33 -31 -69 0 -58 6 -71 46 -96 39 -24 66
-21 107 12 23 17 27 28 27 73 0 44 -4 56 -28 79 -37 35 -80 36 -121 1z"/>
<path d="M3803 3205 c-19 -13 -21 -19 -11 -40 13 -30 19 -31 48 -7 21 17 21
18 3 40 -17 21 -20 22 -40 7z"/>
<path d="M4756 3170 c-29 -36 -33 -75 -10 -108 19 -27 94 -31 115 -6 19 24 16
80 -7 111 -30 40 -65 41 -98 3z"/>
<path d="M6336 3169 c-30 -24 -35 -73 -11 -119 29 -56 87 -66 148 -25 32 22
37 31 37 63 0 35 -20 77 -44 94 -23 16 -103 8 -130 -13z"/>
<path d="M8582 3168 c-28 -28 -5 -108 31 -108 44 0 70 56 47 101 -12 22 -59
26 -78 7z"/>
<path d="M7956 3137 c-26 -21 -28 -27 -22 -61 8 -41 45 -86 72 -86 23 0 84 64
84 88 0 11 -12 34 -26 51 -31 38 -67 40 -108 8z"/>
<path d="M5728 3139 c-14 -8 -18 -23 -18 -64 0 -102 78 -149 149 -89 68 57 22
164 -71 164 -24 0 -51 -5 -60 -11z"/>
<path d="M4170 3120 c-37 -37 -19 -100 28 -100 38 0 52 17 52 62 0 27 -5 40
-19 48 -28 14 -38 13 -61 -10z"/>
<path d="M7343 3121 c-50 -31 -53 -102 -6 -153 27 -30 89 -24 124 11 33 33 37
67 14 111 -27 53 -77 64 -132 31z"/>
<path d="M5122 3088 c-7 -7 -12 -38 -12 -69 0 -48 4 -60 22 -73 12 -9 33 -16
45 -16 30 0 93 57 93 84 0 21 -24 64 -44 78 -17 12 -91 9 -104 -4z"/>
<path d="M6717 3072 c-35 -21 -41 -41 -27 -91 12 -47 51 -81 92 -81 44 0 68
17 89 64 19 45 17 79 -9 109 -20 23 -107 23 -145 -1z"/>
<path d="M6133 3050 c-22 -10 -43 -25 -46 -35 -13 -33 -7 -83 16 -116 18 -27
30 -35 59 -37 49 -4 76 12 95 55 38 93 -36 173 -124 133z"/>
<path d="M8967 3053 c-12 -11 -8 -61 6 -66 18 -7 57 10 63 28 12 30 -46 62
-69 38z"/>
<path d="M4540 3033 c-23 -9 -30 -24 -30 -65 0 -65 59 -76 113 -22 32 32 34
47 7 74 -19 19 -58 25 -90 13z"/>
<path d="M8336 3021 c-11 -12 -16 -31 -14 -52 7 -75 110 -73 116 2 4 44 -17
69 -57 69 -15 0 -36 -9 -45 -19z"/>
<path d="M7730 3007 c-21 -10 -26 -21 -28 -62 -4 -57 12 -75 64 -75 38 0 94
42 94 70 0 28 -41 68 -75 74 -16 3 -41 0 -55 -7z"/>
<path d="M5490 2981 c-18 -34 -12 -109 10 -131 24 -24 86 -27 118 -4 18 13 22
25 22 73 0 31 -5 62 -12 69 -7 7 -38 12 -70 12 -46 0 -59 -4 -68 -19z"/>
<path d="M3922 2978 c-7 -7 -12 -24 -12 -38 0 -31 17 -50 45 -50 28 0 45 19
45 50 0 31 -17 50 -45 50 -12 0 -26 -5 -33 -12z"/>
<path d="M7092 2978 c-7 -7 -12 -36 -12 -64 0 -42 5 -59 26 -83 33 -39 63 -40
103 -2 27 25 31 36 31 79 0 66 -16 82 -84 82 -28 0 -57 -5 -64 -12z"/>
<path d="M4902 2944 c-17 -12 -22 -25 -22 -59 0 -54 19 -75 70 -75 51 0 70 21
70 75 0 49 -24 75 -70 75 -14 0 -36 -7 -48 -16z"/>
<path d="M6520 2943 c-31 -12 -60 -47 -60 -73 0 -15 14 -46 31 -70 29 -39 33
-42 66 -37 55 9 83 41 83 97 0 25 -6 54 -13 64 -13 18 -80 30 -107 19z"/>
<path d="M8736 2927 c-12 -9 -17 -23 -14 -47 3 -30 7 -35 31 -38 36 -4 57 13
57 49 0 42 -40 61 -74 36z"/>
<path d="M8096 2879 c-30 -36 -31 -38 -10 -67 11 -17 25 -22 58 -22 51 0 66
13 66 60 0 44 -15 60 -56 60 -24 0 -39 -8 -58 -31z"/>
<path d="M5869 2883 c-8 -9 -14 -39 -14 -70 0 -66 17 -83 82 -83 58 0 83 25
83 83 0 66 -20 87 -84 87 -38 0 -58 -5 -67 -17z"/>
<path d="M4296 2874 c-19 -18 -21 -55 -4 -72 20 -20 86 -15 98 7 22 43 -1 81
-50 81 -16 0 -36 -7 -44 -16z"/>
<path d="M7481 2864 c-35 -29 -38 -51 -16 -94 18 -35 43 -50 84 -50 41 0 61
23 61 73 0 31 -7 48 -27 69 -33 35 -63 35 -102 2z"/>
<path d="M5295 2851 c-25 -5 -32 -13 -40 -45 -7 -29 -5 -44 6 -64 13 -24 21
-27 64 -27 44 0 51 3 63 27 21 44 7 94 -30 107 -17 6 -31 10 -32 10 -1 -1 -14
-4 -31 -8z"/>
<path d="M6858 2819 c-32 -24 -34 -34 -12 -88 10 -26 25 -43 44 -51 34 -14 59
-8 94 25 20 19 26 33 26 68 0 23 -5 48 -12 55 -20 20 -109 14 -140 -9z"/>
<path d="M3700 2795 c0 -31 34 -35 49 -6 12 22 5 31 -26 31 -18 0 -23 -5 -23
-25z"/>
<path d="M6270 2803 c-35 -24 -40 -33 -40 -75 0 -46 40 -98 77 -98 14 0 37 13
54 29 38 39 39 87 3 130 -29 35 -58 39 -94 14z"/>
<path d="M9117 2814 c-4 -4 -7 -18 -7 -31 0 -26 27 -32 37 -7 6 17 -19 49 -30
38z"/>
<path d="M4666 2788 c-33 -47 -11 -99 41 -100 45 -1 63 17 63 63 0 28 -5 41
-19 49 -32 17 -69 12 -85 -12z"/>
<path d="M8482 2778 c-7 -7 -12 -24 -12 -38 0 -34 17 -50 55 -50 33 0 65 25
65 52 0 38 -79 65 -108 36z"/>
<path d="M5656 2749 c-21 -17 -26 -29 -26 -68 0 -26 5 -52 12 -59 18 -18 94
-15 112 4 20 19 20 66 1 103 -23 46 -57 53 -99 20z"/>
<path d="M7868 2759 c-26 -15 -25 -95 1 -109 53 -28 121 3 121 55 0 52 -72 84
-122 54z"/>
<path d="M4060 2721 c-16 -32 -12 -50 15 -57 40 -10 55 1 55 41 0 32 -2 35
-30 35 -19 0 -33 -7 -40 -19z"/>
<path d="M7236 2718 c-22 -31 -20 -59 7 -99 30 -45 57 -47 101 -9 41 37 46 65
15 104 -28 35 -100 38 -123 4z"/>
<path d="M5048 2699 c-28 -16 -24 -84 6 -104 64 -42 130 41 76 95 -22 22 -55
25 -82 9z"/>
<path d="M6620 2680 c-24 -24 -26 -77 -4 -108 12 -17 25 -22 60 -22 71 0 84
11 84 75 0 43 -4 56 -19 65 -33 17 -99 12 -121 -10z"/>
<path d="M8867 2683 c-13 -13 -7 -64 8 -69 16 -7 65 20 65 36 0 26 -55 52 -73
33z"/>
<path d="M6026 2645 c-30 -28 -36 -88 -12 -120 17 -23 85 -27 110 -6 24 20 21
92 -5 125 -26 33 -58 33 -93 1z"/>
<path d="M4442 2648 c-17 -17 -15 -83 2 -98 23 -18 59 -8 76 23 13 24 13 30 0
55 -17 30 -57 41 -78 20z"/>
<path d="M8252 2648 c-30 -30 -2 -108 40 -108 23 0 48 34 48 66 0 37 -16 54
-50 54 -14 0 -31 -5 -38 -12z"/>
<path d="M7626 2615 c-32 -30 -33 -51 -3 -89 28 -35 82 -41 103 -11 19 25 18
90 -2 109 -23 24 -67 20 -98 -9z"/>
<path d="M5422 2594 c-34 -23 -27 -83 11 -104 24 -13 30 -13 55 0 37 21 44 81
10 104 -12 9 -29 16 -38 16 -9 0 -26 -7 -38 -16z"/>
<path d="M3848 2589 c-10 -5 -18 -19 -18 -29 0 -16 7 -20 35 -20 39 0 46 17
19 44 -8 9 -16 16 -17 16 -1 0 -10 -5 -19 -11z"/>
<path d="M7030 2593 c-24 -10 -30 -25 -30 -75 0 -37 4 -50 19 -58 33 -17 61
-11 92 19 49 49 33 108 -31 116 -19 2 -42 2 -50 -2z"/>
<path d="M6404 2547 c-62 -54 2 -167 79 -138 45 17 49 81 6 134 -25 33 -50 34
-85 4z"/>
<path d="M4810 2541 c-14 -26 -13 -74 2 -89 17 -17 54 -15 72 4 36 35 10 104
-39 104 -14 0 -29 -8 -35 -19z"/>
<path d="M8620 2534 c-7 -16 -7 -32 0 -44 24 -44 90 -31 90 18 0 36 -17 52
-52 52 -21 0 -31 -6 -38 -26z"/>
<path d="M5802 2500 c-44 -41 -37 -103 14 -116 57 -14 89 28 75 99 -6 26 -12
33 -36 35 -20 2 -38 -4 -53 -18z"/>
<path d="M8004 2495 c-14 -21 -15 -31 -6 -50 9 -20 19 -25 50 -25 45 0 62 14
62 52 0 51 -77 67 -106 23z"/>
<path d="M4212 2498 c-7 -7 -12 -27 -12 -45 0 -30 3 -33 30 -33 37 0 54 28 40
64 -10 28 -38 34 -58 14z"/>
<path d="M7380 2471 c-26 -50 -1 -101 50 -101 38 0 60 24 60 64 0 42 -16 56
-62 56 -27 0 -40 -5 -48 -19z"/>
<path d="M5184 2435 c-23 -35 -11 -83 23 -91 41 -11 58 7 61 65 l3 51 -35 0
c-27 0 -40 -6 -52 -25z"/>
<path d="M6766 2434 c-26 -25 -20 -81 9 -100 27 -17 76 -14 102 7 19 17 16 73
-5 92 -23 21 -86 22 -106 1z"/>
<path d="M4595 2412 c-47 -9 -59 -62 -20 -88 35 -23 83 -11 91 23 11 43 -23
75 -71 65z"/>
<path d="M6176 2399 c-33 -26 -37 -92 -7 -109 52 -27 101 2 101 59 0 69 -41
91 -94 50z"/>
<path d="M8408 2409 c-38 -22 -10 -97 30 -85 24 8 29 43 12 77 -12 22 -18 23
-42 8z"/>
<path d="M7780 2374 c-8 -8 -13 -28 -13 -44 0 -36 19 -60 47 -60 32 0 46 19
46 60 0 20 -5 41 -12 48 -17 17 -53 15 -68 -4z"/>
<path d="M3974 2356 c-3 -8 -4 -25 -2 -38 2 -17 9 -23 28 -23 22 0 25 4 25 35
0 29 -4 36 -23 38 -13 2 -24 -3 -28 -12z"/>
<path d="M5568 2349 c-21 -12 -24 -59 -6 -77 7 -7 29 -12 50 -12 31 0 41 5 50
25 23 52 -41 96 -94 64z"/>
<path d="M7160 2330 c-44 -44 -7 -118 53 -106 38 8 47 20 47 68 0 27 -5 40
-19 48 -30 16 -59 12 -81 -10z"/>
<path d="M4950 2270 c0 -29 5 -42 20 -50 40 -21 88 16 73 57 -9 25 -23 33 -60
33 -32 0 -33 -2 -33 -40z"/>
<path d="M8772 2298 c-12 -16 2 -58 21 -58 7 0 21 6 31 13 15 11 17 17 7 35
-13 24 -43 29 -59 10z"/>
<path d="M6530 2281 c-15 -28 -12 -46 8 -64 38 -34 102 -14 102 31 0 38 -17
52 -62 52 -27 0 -40 -5 -48 -19z"/>
<path d="M4350 2230 c0 -36 3 -40 25 -40 23 0 25 4 25 40 0 36 -2 40 -25 40
-22 0 -25 -4 -25 -40z"/>
<path d="M8158 2259 c-26 -15 -22 -48 7 -61 19 -9 29 -8 50 6 29 19 31 29 9
50 -18 18 -41 20 -66 5z"/>
<path d="M5942 2244 c-54 -38 5 -111 66 -82 36 18 42 60 10 82 -12 9 -29 16
-38 16 -9 0 -26 -7 -38 -16z"/>
<path d="M7546 2224 c-3 -9 -6 -29 -6 -45 0 -27 3 -29 35 -29 42 0 53 18 35
60 -14 33 -53 42 -64 14z"/>
<path d="M5328 2186 c-17 -38 -4 -58 34 -54 30 3 33 6 36 41 3 35 2 37 -28 37
-23 0 -33 -6 -42 -24z"/>
<path d="M6932 2188 c-7 -7 -12 -24 -12 -38 0 -53 57 -69 86 -25 15 23 15 27
0 50 -18 27 -54 33 -74 13z"/>
<path d="M4727 2164 c-4 -4 -7 -23 -7 -41 0 -32 2 -34 28 -31 24 3 27 7 27 38
0 28 -4 36 -20 38 -12 2 -24 0 -28 -4z"/>
<path d="M6321 2146 c-7 -8 -9 -25 -5 -40 5 -22 12 -26 40 -26 31 0 34 3 34
30 0 24 -6 33 -26 40 -32 12 -29 13 -43 -4z"/>
<path d="M7928 2123 c-11 -3 -18 -14 -18 -29 0 -21 4 -24 40 -24 36 0 40 3 40
24 0 13 -7 27 -16 30 -17 6 -19 6 -46 -1z"/>
<path d="M4120 2096 c0 -31 14 -40 30 -21 15 18 6 45 -15 45 -9 0 -15 -9 -15
-24z"/>
<path d="M5716 2097 c-21 -15 -18 -45 5 -60 28 -17 49 -1 49 38 0 39 -20 47
-54 22z"/>
<path d="M7313 2088 c-13 -6 -23 -17 -23 -24 0 -21 31 -45 54 -42 17 2 21 10
21 38 0 38 -15 46 -52 28z"/>
<path d="M5107 2053 c-4 -3 -7 -15 -7 -25 0 -14 8 -18 35 -18 38 0 40 2 25 31
-10 19 -40 26 -53 12z"/>
<path d="M6706 2037 c-15 -11 -17 -17 -7 -35 21 -39 68 -21 57 22 -7 29 -23
33 -50 13z"/>
<path d="M4494 2006 c-8 -22 3 -49 19 -43 6 2 12 14 12 27 0 27 -22 39 -31 16z"/>
<path d="M8310 1995 c0 -16 6 -25 15 -25 9 0 15 9 15 25 0 16 -6 25 -15 25 -9
0 -15 -9 -15 -25z"/>
<path d="M6093 1999 c-26 -10 -29 -27 -10 -53 11 -15 17 -17 35 -7 42 22 19
77 -25 60z"/>
<path d="M7690 1961 c0 -16 6 -21 26 -21 33 0 30 33 -4 38 -17 3 -22 -2 -22
-17z"/>
<path d="M5490 1935 c0 -16 6 -25 15 -25 9 0 15 9 15 25 0 16 -6 25 -15 25 -9
0 -15 -9 -15 -25z"/>
</g>
</svg>
